<svg width="392" height="38" viewBox="0 0 392 38" fill="none" xmlns="http://www.w3.org/2000/svg">
<rect width="392" height="37.6462" rx="3" fill="#DE3F39"/>
<path d="M142.438 17.323C142.438 16.4018 142.638 15.5824 143.036 14.8649C143.435 14.1386 143.989 13.5761 144.697 13.1775C145.415 12.77 146.225 12.5663 147.129 12.5663C148.236 12.5663 149.184 12.8586 149.972 13.4432C150.76 14.0279 151.288 14.8251 151.553 15.8349H149.055C148.869 15.4451 148.604 15.1484 148.258 14.9447C147.922 14.7409 147.536 14.6391 147.102 14.6391C146.402 14.6391 145.835 14.8827 145.401 15.3698C144.967 15.857 144.75 16.5081 144.75 17.323C144.75 18.1379 144.967 18.789 145.401 19.2762C145.835 19.7634 146.402 20.007 147.102 20.007C147.536 20.007 147.922 19.9051 148.258 19.7014C148.604 19.4976 148.869 19.2009 149.055 18.8111H151.553C151.288 19.821 150.76 20.6182 149.972 21.2028C149.184 21.7786 148.236 22.0664 147.129 22.0664C146.225 22.0664 145.415 21.8671 144.697 21.4685C143.989 21.0611 143.435 20.4986 143.036 19.7811C142.638 19.0636 142.438 18.2442 142.438 17.323ZM155.217 15.8216C155.482 15.4141 155.815 15.0953 156.213 14.8649C156.612 14.6258 157.055 14.5062 157.542 14.5062V16.9111H156.917C156.351 16.9111 155.925 17.0351 155.642 17.2832C155.358 17.5223 155.217 17.9475 155.217 18.5587V22H152.945V14.5859H155.217V15.8216ZM165.617 18.1734C165.617 18.386 165.604 18.6074 165.577 18.8377H160.435C160.47 19.2983 160.617 19.6527 160.873 19.9007C161.139 20.1398 161.462 20.2594 161.843 20.2594C162.41 20.2594 162.804 20.0203 163.026 19.5419H165.444C165.32 20.0291 165.094 20.4676 164.766 20.8573C164.448 21.2471 164.045 21.5527 163.557 21.7741C163.07 21.9956 162.525 22.1063 161.923 22.1063C161.197 22.1063 160.55 21.9513 159.983 21.6413C159.416 21.3312 158.973 20.8883 158.654 20.3126C158.336 19.7368 158.176 19.0636 158.176 18.293C158.176 17.5223 158.331 16.8491 158.641 16.2734C158.96 15.6976 159.403 15.2547 159.97 14.9447C160.537 14.6346 161.188 14.4796 161.923 14.4796C162.641 14.4796 163.278 14.6302 163.836 14.9314C164.394 15.2325 164.828 15.6622 165.138 16.2202C165.457 16.7783 165.617 17.4293 165.617 18.1734ZM163.292 17.5755C163.292 17.1857 163.159 16.8757 162.893 16.6454C162.627 16.4151 162.295 16.2999 161.896 16.2999C161.516 16.2999 161.192 16.4107 160.927 16.6321C160.67 16.8535 160.51 17.168 160.448 17.5755H163.292ZM166.364 18.2797C166.364 17.5179 166.505 16.8491 166.789 16.2734C167.081 15.6976 167.475 15.2547 167.971 14.9447C168.467 14.6346 169.021 14.4796 169.632 14.4796C170.155 14.4796 170.611 14.5859 171.001 14.7985C171.399 15.0111 171.705 15.2901 171.918 15.6356V14.5859H174.19V22H171.918V20.9503C171.696 21.2958 171.386 21.5748 170.988 21.7874C170.598 22 170.142 22.1063 169.619 22.1063C169.017 22.1063 168.467 21.9513 167.971 21.6413C167.475 21.3224 167.081 20.875 166.789 20.2993C166.505 19.7147 166.364 19.0415 166.364 18.2797ZM171.918 18.293C171.918 17.7261 171.758 17.2787 171.439 16.951C171.129 16.6232 170.748 16.4594 170.297 16.4594C169.845 16.4594 169.46 16.6232 169.141 16.951C168.831 17.2699 168.676 17.7128 168.676 18.2797C168.676 18.8466 168.831 19.2983 169.141 19.6349C169.46 19.9627 169.845 20.1265 170.297 20.1265C170.748 20.1265 171.129 19.9627 171.439 19.6349C171.758 19.3072 171.918 18.8599 171.918 18.293ZM179.966 20.0734V22H178.81C177.986 22 177.344 21.8007 176.883 21.4021C176.422 20.9946 176.192 20.3347 176.192 19.4223V16.4727H175.289V14.5859H176.192V12.7789H178.464V14.5859H179.952V16.4727H178.464V19.4489C178.464 19.6704 178.517 19.8298 178.624 19.9272C178.73 20.0247 178.907 20.0734 179.155 20.0734H179.966ZM188.22 18.1734C188.22 18.386 188.207 18.6074 188.18 18.8377H183.038C183.074 19.2983 183.22 19.6527 183.477 19.9007C183.742 20.1398 184.066 20.2594 184.447 20.2594C185.014 20.2594 185.408 20.0203 185.629 19.5419H188.047C187.923 20.0291 187.697 20.4676 187.37 20.8573C187.051 21.2471 186.648 21.5527 186.161 21.7741C185.673 21.9956 185.129 22.1063 184.526 22.1063C183.8 22.1063 183.153 21.9513 182.586 21.6413C182.02 21.3312 181.577 20.8883 181.258 20.3126C180.939 19.7368 180.779 19.0636 180.779 18.293C180.779 17.5223 180.934 16.8491 181.244 16.2734C181.563 15.6976 182.006 15.2547 182.573 14.9447C183.14 14.6346 183.791 14.4796 184.526 14.4796C185.244 14.4796 185.882 14.6302 186.44 14.9314C186.998 15.2325 187.432 15.6622 187.742 16.2202C188.061 16.7783 188.22 17.4293 188.22 18.1734ZM185.895 17.5755C185.895 17.1857 185.762 16.8757 185.496 16.6454C185.231 16.4151 184.898 16.2999 184.5 16.2999C184.119 16.2999 183.796 16.4107 183.53 16.6321C183.273 16.8535 183.113 17.168 183.051 17.5755H185.895ZM198.041 20.3524H194.56L194.002 22H191.623L194.998 12.6726H197.629L201.004 22H198.599L198.041 20.3524ZM197.456 18.5986L196.3 15.1838L195.157 18.5986H197.456ZM201.579 18.293C201.579 17.5223 201.734 16.8491 202.044 16.2734C202.363 15.6976 202.801 15.2547 203.36 14.9447C203.926 14.6346 204.573 14.4796 205.299 14.4796C206.23 14.4796 207.005 14.7232 207.625 15.2104C208.254 15.6976 208.665 16.3841 208.86 17.2699H206.442C206.238 16.703 205.844 16.4195 205.26 16.4195C204.843 16.4195 204.511 16.5834 204.263 16.9111C204.015 17.23 203.891 17.6906 203.891 18.293C203.891 18.8953 204.015 19.3603 204.263 19.6881C204.511 20.007 204.843 20.1664 205.26 20.1664C205.844 20.1664 206.238 19.883 206.442 19.3161H208.86C208.665 20.1841 208.254 20.8662 207.625 21.3622C206.996 21.8583 206.221 22.1063 205.299 22.1063C204.573 22.1063 203.926 21.9513 203.36 21.6413C202.801 21.3312 202.363 20.8883 202.044 20.3126C201.734 19.7368 201.579 19.0636 201.579 18.293ZM209.624 18.293C209.624 17.5223 209.779 16.8491 210.089 16.2734C210.408 15.6976 210.846 15.2547 211.404 14.9447C211.971 14.6346 212.618 14.4796 213.344 14.4796C214.274 14.4796 215.049 14.7232 215.669 15.2104C216.298 15.6976 216.71 16.3841 216.905 17.2699H214.487C214.283 16.703 213.889 16.4195 213.304 16.4195C212.888 16.4195 212.556 16.5834 212.308 16.9111C212.06 17.23 211.936 17.6906 211.936 18.293C211.936 18.8953 212.06 19.3603 212.308 19.6881C212.556 20.007 212.888 20.1664 213.304 20.1664C213.889 20.1664 214.283 19.883 214.487 19.3161H216.905C216.71 20.1841 216.298 20.8662 215.669 21.3622C215.041 21.8583 214.265 22.1063 213.344 22.1063C212.618 22.1063 211.971 21.9513 211.404 21.6413C210.846 21.3312 210.408 20.8883 210.089 20.3126C209.779 19.7368 209.624 19.0636 209.624 18.293ZM221.495 22.1063C220.769 22.1063 220.113 21.9513 219.529 21.6413C218.953 21.3312 218.497 20.8883 218.16 20.3126C217.833 19.7368 217.669 19.0636 217.669 18.293C217.669 17.5312 217.837 16.8624 218.174 16.2866C218.51 15.702 218.971 15.2547 219.555 14.9447C220.14 14.6346 220.796 14.4796 221.522 14.4796C222.248 14.4796 222.904 14.6346 223.488 14.9447C224.073 15.2547 224.534 15.702 224.87 16.2866C225.207 16.8624 225.375 17.5312 225.375 18.293C225.375 19.0547 225.202 19.7279 224.857 20.3126C224.52 20.8883 224.055 21.3312 223.462 21.6413C222.877 21.9513 222.222 22.1063 221.495 22.1063ZM221.495 20.1398C221.929 20.1398 222.297 19.9804 222.598 19.6615C222.908 19.3426 223.063 18.8864 223.063 18.293C223.063 17.6995 222.913 17.2433 222.611 16.9244C222.319 16.6055 221.956 16.4461 221.522 16.4461C221.079 16.4461 220.711 16.6055 220.419 16.9244C220.127 17.2344 219.981 17.6906 219.981 18.293C219.981 18.8864 220.122 19.3426 220.406 19.6615C220.698 19.9804 221.061 20.1398 221.495 20.1398ZM233.902 14.5859V22H231.629V20.9902C231.399 21.3179 231.085 21.5837 230.686 21.7874C230.296 21.9823 229.862 22.0797 229.384 22.0797C228.817 22.0797 228.317 21.9557 227.883 21.7077C227.449 21.4508 227.112 21.0832 226.873 20.6049C226.634 20.1265 226.514 19.5641 226.514 18.9174V14.5859H228.773V18.6118C228.773 19.1079 228.901 19.4932 229.158 19.7678C229.415 20.0424 229.76 20.1797 230.194 20.1797C230.637 20.1797 230.987 20.0424 231.244 19.7678C231.501 19.4932 231.629 19.1079 231.629 18.6118V14.5859H233.902ZM240.051 14.5062C240.919 14.5062 241.61 14.7897 242.124 15.3566C242.646 15.9146 242.908 16.6852 242.908 17.6685V22H240.649V17.9741C240.649 17.478 240.521 17.0927 240.264 16.8181C240.007 16.5435 239.661 16.4062 239.227 16.4062C238.793 16.4062 238.448 16.5435 238.191 16.8181C237.934 17.0927 237.806 17.478 237.806 17.9741V22H235.534V14.5859H237.806V15.5691C238.036 15.2414 238.346 14.9845 238.736 14.7985C239.125 14.6036 239.564 14.5062 240.051 14.5062ZM248.619 20.0734V22H247.463C246.639 22 245.997 21.8007 245.536 21.4021C245.076 20.9946 244.845 20.3347 244.845 19.4223V16.4727H243.942V14.5859H244.845V12.7789H247.117V14.5859H248.606V16.4727H247.117V19.4489C247.117 19.6704 247.171 19.8298 247.277 19.9272C247.383 20.0247 247.56 20.0734 247.808 20.0734H248.619Z" fill="white"/>
</svg>
