<svg width="199" height="32" viewBox="0 0 199 32" fill="none" xmlns="http://www.w3.org/2000/svg">
<path d="M0.5 3C0.5 1.61929 1.61929 0.5 3 0.5H196C197.381 0.5 198.5 1.61929 198.5 3V29C198.5 30.3807 197.381 31.5 196 31.5H3C1.61929 31.5 0.5 30.3807 0.5 29V3Z" fill="white" stroke="#0172D0"/>
<path d="M37.407 15.161C37.407 14.413 37.5793 13.742 37.924 13.148C38.276 12.554 38.749 12.092 39.343 11.762C39.9443 11.4247 40.6007 11.256 41.312 11.256C42.126 11.256 42.8483 11.4577 43.479 11.861C44.117 12.257 44.579 12.8217 44.865 13.555H43.358C43.16 13.1517 42.885 12.851 42.533 12.653C42.181 12.455 41.774 12.356 41.312 12.356C40.806 12.356 40.355 12.4697 39.959 12.697C39.563 12.9243 39.2513 13.2507 39.024 13.676C38.804 14.1013 38.694 14.5963 38.694 15.161C38.694 15.7257 38.804 16.2207 39.024 16.646C39.2513 17.0713 39.563 17.4013 39.959 17.636C40.355 17.8633 40.806 17.977 41.312 17.977C41.774 17.977 42.181 17.878 42.533 17.68C42.885 17.482 43.16 17.1813 43.358 16.778H44.865C44.579 17.5113 44.117 18.076 43.479 18.472C42.8483 18.868 42.126 19.066 41.312 19.066C40.5933 19.066 39.937 18.901 39.343 18.571C38.749 18.2337 38.276 17.768 37.924 17.174C37.5793 16.58 37.407 15.909 37.407 15.161ZM48.9618 19.099C48.3898 19.099 47.8728 18.9707 47.4108 18.714C46.9488 18.45 46.5858 18.0833 46.3218 17.614C46.0578 17.1373 45.9258 16.5873 45.9258 15.964C45.9258 15.348 46.0615 14.8017 46.3328 14.325C46.6041 13.8483 46.9745 13.4817 47.4438 13.225C47.9131 12.9683 48.4375 12.84 49.0168 12.84C49.5961 12.84 50.1205 12.9683 50.5898 13.225C51.0591 13.4817 51.4295 13.8483 51.7008 14.325C51.9721 14.8017 52.1078 15.348 52.1078 15.964C52.1078 16.58 51.9685 17.1263 51.6898 17.603C51.4111 18.0797 51.0298 18.45 50.5458 18.714C50.0691 18.9707 49.5411 19.099 48.9618 19.099ZM48.9618 18.01C49.2845 18.01 49.5851 17.933 49.8638 17.779C50.1498 17.625 50.3808 17.394 50.5568 17.086C50.7328 16.778 50.8208 16.404 50.8208 15.964C50.8208 15.524 50.7365 15.1537 50.5678 14.853C50.3991 14.545 50.1755 14.314 49.8968 14.16C49.6181 14.006 49.3175 13.929 48.9948 13.929C48.6721 13.929 48.3715 14.006 48.0928 14.16C47.8215 14.314 47.6051 14.545 47.4438 14.853C47.2825 15.1537 47.2018 15.524 47.2018 15.964C47.2018 16.6167 47.3668 17.1227 47.6968 17.482C48.0341 17.834 48.4558 18.01 48.9618 18.01ZM56.4055 12.84C56.8821 12.84 57.3075 12.939 57.6815 13.137C58.0628 13.335 58.3598 13.6283 58.5725 14.017C58.7851 14.4057 58.8915 14.875 58.8915 15.425V19H57.6485V15.612C57.6485 15.0693 57.5128 14.655 57.2415 14.369C56.9701 14.0757 56.5998 13.929 56.1305 13.929C55.6611 13.929 55.2871 14.0757 55.0085 14.369C54.7371 14.655 54.6015 15.0693 54.6015 15.612V19H53.3475V12.939H54.6015V13.632C54.8068 13.3827 55.0671 13.1883 55.3825 13.049C55.7051 12.9097 56.0461 12.84 56.4055 12.84ZM63.549 12.84C64.0257 12.84 64.451 12.939 64.825 13.137C65.2063 13.335 65.5033 13.6283 65.716 14.017C65.9287 14.4057 66.035 14.875 66.035 15.425V19H64.792V15.612C64.792 15.0693 64.6563 14.655 64.385 14.369C64.1137 14.0757 63.7433 13.929 63.274 13.929C62.8047 13.929 62.4307 14.0757 62.152 14.369C61.8807 14.655 61.745 15.0693 61.745 15.612V19H60.491V12.939H61.745V13.632C61.9503 13.3827 62.2107 13.1883 62.526 13.049C62.8487 12.9097 63.1897 12.84 63.549 12.84ZM73.1896 15.821C73.1896 16.0483 73.1749 16.2537 73.1456 16.437H68.5146C68.5512 16.921 68.7309 17.3097 69.0536 17.603C69.3762 17.8963 69.7722 18.043 70.2416 18.043C70.9162 18.043 71.3929 17.7607 71.6716 17.196H73.0246C72.8412 17.7533 72.5076 18.2117 72.0236 18.571C71.5469 18.923 70.9529 19.099 70.2416 19.099C69.6622 19.099 69.1416 18.9707 68.6796 18.714C68.2249 18.45 67.8656 18.0833 67.6016 17.614C67.3449 17.1373 67.2166 16.5873 67.2166 15.964C67.2166 15.3407 67.3412 14.7943 67.5906 14.325C67.8472 13.8483 68.2029 13.4817 68.6576 13.225C69.1196 12.9683 69.6476 12.84 70.2416 12.84C70.8136 12.84 71.3232 12.9647 71.7706 13.214C72.2179 13.4633 72.5662 13.8153 72.8156 14.27C73.0649 14.7173 73.1896 15.2343 73.1896 15.821ZM71.8806 15.425C71.8732 14.963 71.7082 14.5927 71.3856 14.314C71.0629 14.0353 70.6632 13.896 70.1866 13.896C69.7539 13.896 69.3836 14.0353 69.0756 14.314C68.7676 14.5853 68.5842 14.9557 68.5256 15.425H71.8806ZM74.0056 15.964C74.0056 15.3407 74.1303 14.7943 74.3796 14.325C74.6363 13.8483 74.9883 13.4817 75.4356 13.225C75.883 12.9683 76.3963 12.84 76.9756 12.84C77.709 12.84 78.314 13.016 78.7906 13.368C79.2746 13.7127 79.601 14.2077 79.7696 14.853H78.4166C78.3066 14.5523 78.1306 14.3177 77.8886 14.149C77.6466 13.9803 77.3423 13.896 76.9756 13.896C76.4623 13.896 76.0516 14.0793 75.7436 14.446C75.443 14.8053 75.2926 15.3113 75.2926 15.964C75.2926 16.6167 75.443 17.1263 75.7436 17.493C76.0516 17.8597 76.4623 18.043 76.9756 18.043C77.7016 18.043 78.182 17.724 78.4166 17.086H79.7696C79.5936 17.702 79.2636 18.1933 78.7796 18.56C78.2956 18.9193 77.6943 19.099 76.9756 19.099C76.3963 19.099 75.883 18.9707 75.4356 18.714C74.9883 18.45 74.6363 18.0833 74.3796 17.614C74.1303 17.1373 74.0056 16.5873 74.0056 15.964ZM82.4823 13.962V17.317C82.4823 17.5443 82.5337 17.7093 82.6363 17.812C82.7463 17.9073 82.9297 17.955 83.1863 17.955H83.9563V19H82.9663C82.4017 19 81.969 18.868 81.6683 18.604C81.3677 18.34 81.2173 17.911 81.2173 17.317V13.962H80.5023V12.939H81.2173V11.432H82.4823V12.939H83.9563V13.962H82.4823ZM96.1095 12.939L94.2285 19H92.9085L91.6875 14.523L90.4665 19H89.1465L87.2545 12.939H88.5305L89.7955 17.812L91.0825 12.939H92.3915L93.6235 17.79L94.8775 12.939H96.1095ZM97.6847 12.136C97.4573 12.136 97.2667 12.059 97.1127 11.905C96.9587 11.751 96.8817 11.5603 96.8817 11.333C96.8817 11.1057 96.9587 10.915 97.1127 10.761C97.2667 10.607 97.4573 10.53 97.6847 10.53C97.9047 10.53 98.0917 10.607 98.2457 10.761C98.3997 10.915 98.4767 11.1057 98.4767 11.333C98.4767 11.5603 98.3997 11.751 98.2457 11.905C98.0917 12.059 97.9047 12.136 97.6847 12.136ZM98.3007 12.939V19H97.0467V12.939H98.3007ZM101.41 13.962V17.317C101.41 17.5443 101.461 17.7093 101.564 17.812C101.674 17.9073 101.857 17.955 102.114 17.955H102.884V19H101.894C101.329 19 100.897 18.868 100.596 18.604C100.295 18.34 100.145 17.911 100.145 17.317V13.962H99.4301V12.939H100.145V11.432H101.41V12.939H102.884V13.962H101.41ZM107.175 12.84C107.637 12.84 108.048 12.939 108.407 13.137C108.774 13.335 109.06 13.6283 109.265 14.017C109.478 14.4057 109.584 14.875 109.584 15.425V19H108.341V15.612C108.341 15.0693 108.205 14.655 107.934 14.369C107.663 14.0757 107.292 13.929 106.823 13.929C106.354 13.929 105.98 14.0757 105.701 14.369C105.43 14.655 105.294 15.0693 105.294 15.612V19H104.04V10.86H105.294V13.643C105.507 13.3863 105.774 13.1883 106.097 13.049C106.427 12.9097 106.786 12.84 107.175 12.84ZM118.54 11.355V12.378H115.295V14.633H117.825V15.656H115.295V19H114.041V11.355H118.54ZM119.284 15.942C119.284 15.3333 119.409 14.7943 119.658 14.325C119.915 13.8557 120.259 13.4927 120.692 13.236C121.132 12.972 121.616 12.84 122.144 12.84C122.621 12.84 123.035 12.9353 123.387 13.126C123.746 13.3093 124.032 13.5403 124.245 13.819V12.939H125.51V19H124.245V18.098C124.032 18.384 123.743 18.6223 123.376 18.813C123.009 19.0037 122.591 19.099 122.122 19.099C121.601 19.099 121.125 18.967 120.692 18.703C120.259 18.4317 119.915 18.0577 119.658 17.581C119.409 17.097 119.284 16.5507 119.284 15.942ZM124.245 15.964C124.245 15.546 124.157 15.183 123.981 14.875C123.812 14.567 123.589 14.3323 123.31 14.171C123.031 14.0097 122.731 13.929 122.408 13.929C122.085 13.929 121.785 14.0097 121.506 14.171C121.227 14.325 121 14.556 120.824 14.864C120.655 15.1647 120.571 15.524 120.571 15.942C120.571 16.36 120.655 16.7267 120.824 17.042C121 17.3573 121.227 17.5993 121.506 17.768C121.792 17.9293 122.093 18.01 122.408 18.01C122.731 18.01 123.031 17.9293 123.31 17.768C123.589 17.6067 123.812 17.372 123.981 17.064C124.157 16.7487 124.245 16.382 124.245 15.964ZM126.739 15.964C126.739 15.3407 126.864 14.7943 127.113 14.325C127.37 13.8483 127.722 13.4817 128.169 13.225C128.616 12.9683 129.13 12.84 129.709 12.84C130.442 12.84 131.047 13.016 131.524 13.368C132.008 13.7127 132.334 14.2077 132.503 14.853H131.15C131.04 14.5523 130.864 14.3177 130.622 14.149C130.38 13.9803 130.076 13.896 129.709 13.896C129.196 13.896 128.785 14.0793 128.477 14.446C128.176 14.8053 128.026 15.3113 128.026 15.964C128.026 16.6167 128.176 17.1263 128.477 17.493C128.785 17.8597 129.196 18.043 129.709 18.043C130.435 18.043 130.915 17.724 131.15 17.086H132.503C132.327 17.702 131.997 18.1933 131.513 18.56C131.029 18.9193 130.428 19.099 129.709 19.099C129.13 19.099 128.616 18.9707 128.169 18.714C127.722 18.45 127.37 18.0833 127.113 17.614C126.864 17.1373 126.739 16.5873 126.739 15.964ZM139.308 15.821C139.308 16.0483 139.293 16.2537 139.264 16.437H134.633C134.669 16.921 134.849 17.3097 135.172 17.603C135.494 17.8963 135.89 18.043 136.36 18.043C137.034 18.043 137.511 17.7607 137.79 17.196H139.143C138.959 17.7533 138.626 18.2117 138.142 18.571C137.665 18.923 137.071 19.099 136.36 19.099C135.78 19.099 135.26 18.9707 134.798 18.714C134.343 18.45 133.984 18.0833 133.72 17.614C133.463 17.1373 133.335 16.5873 133.335 15.964C133.335 15.3407 133.459 14.7943 133.709 14.325C133.965 13.8483 134.321 13.4817 134.776 13.225C135.238 12.9683 135.766 12.84 136.36 12.84C136.932 12.84 137.441 12.9647 137.889 13.214C138.336 13.4633 138.684 13.8153 138.934 14.27C139.183 14.7173 139.308 15.2343 139.308 15.821ZM137.999 15.425C137.991 14.963 137.826 14.5927 137.504 14.314C137.181 14.0353 136.781 13.896 136.305 13.896C135.872 13.896 135.502 14.0353 135.194 14.314C134.886 14.5853 134.702 14.9557 134.644 15.425H137.999ZM141.796 13.841C142.008 13.5477 142.298 13.3093 142.665 13.126C143.039 12.9353 143.453 12.84 143.908 12.84C144.443 12.84 144.927 12.9683 145.36 13.225C145.792 13.4817 146.133 13.8483 146.383 14.325C146.632 14.7943 146.757 15.3333 146.757 15.942C146.757 16.5507 146.632 17.097 146.383 17.581C146.133 18.0577 145.789 18.4317 145.349 18.703C144.916 18.967 144.436 19.099 143.908 19.099C143.438 19.099 143.02 19.0073 142.654 18.824C142.294 18.6407 142.008 18.406 141.796 18.12V19H140.542V10.86H141.796V13.841ZM145.481 15.942C145.481 15.524 145.393 15.1647 145.217 14.864C145.048 14.556 144.821 14.325 144.535 14.171C144.256 14.0097 143.955 13.929 143.633 13.929C143.317 13.929 143.017 14.0097 142.731 14.171C142.452 14.3323 142.225 14.567 142.049 14.875C141.88 15.183 141.796 15.546 141.796 15.964C141.796 16.382 141.88 16.7487 142.049 17.064C142.225 17.372 142.452 17.6067 142.731 17.768C143.017 17.9293 143.317 18.01 143.633 18.01C143.955 18.01 144.256 17.9293 144.535 17.768C144.821 17.5993 145.048 17.3573 145.217 17.042C145.393 16.7267 145.481 16.36 145.481 15.942ZM150.626 19.099C150.054 19.099 149.537 18.9707 149.075 18.714C148.613 18.45 148.25 18.0833 147.986 17.614C147.722 17.1373 147.59 16.5873 147.59 15.964C147.59 15.348 147.726 14.8017 147.997 14.325C148.268 13.8483 148.639 13.4817 149.108 13.225C149.577 12.9683 150.102 12.84 150.681 12.84C151.26 12.84 151.785 12.9683 152.254 13.225C152.723 13.4817 153.094 13.8483 153.365 14.325C153.636 14.8017 153.772 15.348 153.772 15.964C153.772 16.58 153.633 17.1263 153.354 17.603C153.075 18.0797 152.694 18.45 152.21 18.714C151.733 18.9707 151.205 19.099 150.626 19.099ZM150.626 18.01C150.949 18.01 151.249 17.933 151.528 17.779C151.814 17.625 152.045 17.394 152.221 17.086C152.397 16.778 152.485 16.404 152.485 15.964C152.485 15.524 152.401 15.1537 152.232 14.853C152.063 14.545 151.84 14.314 151.561 14.16C151.282 14.006 150.982 13.929 150.659 13.929C150.336 13.929 150.036 14.006 149.757 14.16C149.486 14.314 149.269 14.545 149.108 14.853C148.947 15.1537 148.866 15.524 148.866 15.964C148.866 16.6167 149.031 17.1227 149.361 17.482C149.698 17.834 150.12 18.01 150.626 18.01ZM157.641 19.099C157.069 19.099 156.552 18.9707 156.09 18.714C155.628 18.45 155.265 18.0833 155.001 17.614C154.737 17.1373 154.605 16.5873 154.605 15.964C154.605 15.348 154.74 14.8017 155.012 14.325C155.283 13.8483 155.653 13.4817 156.123 13.225C156.592 12.9683 157.116 12.84 157.696 12.84C158.275 12.84 158.799 12.9683 159.269 13.225C159.738 13.4817 160.108 13.8483 160.38 14.325C160.651 14.8017 160.787 15.348 160.787 15.964C160.787 16.58 160.647 17.1263 160.369 17.603C160.09 18.0797 159.709 18.45 159.225 18.714C158.748 18.9707 158.22 19.099 157.641 19.099ZM157.641 18.01C157.963 18.01 158.264 17.933 158.543 17.779C158.829 17.625 159.06 17.394 159.236 17.086C159.412 16.778 159.5 16.404 159.5 15.964C159.5 15.524 159.415 15.1537 159.247 14.853C159.078 14.545 158.854 14.314 158.576 14.16C158.297 14.006 157.996 13.929 157.674 13.929C157.351 13.929 157.05 14.006 156.772 14.16C156.5 14.314 156.284 14.545 156.123 14.853C155.961 15.1537 155.881 15.524 155.881 15.964C155.881 16.6167 156.046 17.1227 156.376 17.482C156.713 17.834 157.135 18.01 157.641 18.01ZM164.424 15.975L167.218 19H165.524L163.28 16.393V19H162.026V10.86H163.28V15.59L165.48 12.939H167.218L164.424 15.975Z" fill="#0172D0"/>
<path d="M24.3447 16.5025L24.8632 13.1235H21.621V10.9307C21.621 10.0063 22.0739 9.10517 23.526 9.10517H25V6.22828C25 6.22828 23.6624 6 22.3835 6C19.7134 6 17.9681 7.61841 17.9681 10.5482V13.1235H15V16.5025H17.9681V24.6711H21.621V16.5025H24.3447Z" fill="#0172D0"/>
</svg>
