<svg width="514" height="523" viewBox="0 0 514 523" fill="none" xmlns="http://www.w3.org/2000/svg">
<g filter="url(#filter0_d)">
<rect x="7.00037" y="5.99976" width="494" height="503" rx="5" fill="white"/>
<rect x="7.50037" y="6.49976" width="493" height="502" rx="4.5" stroke="#E5E5E5"/>
</g>
<path d="M47.3234 42.3548V43.3778H44.0784V45.6328H46.6084V46.6558H44.0784V49.9998H42.8244V42.3548H47.3234ZM49.1235 43.1358C48.8962 43.1358 48.7055 43.0588 48.5515 42.9048C48.3975 42.7508 48.3205 42.5601 48.3205 42.3328C48.3205 42.1054 48.3975 41.9148 48.5515 41.7608C48.7055 41.6068 48.8962 41.5298 49.1235 41.5298C49.3435 41.5298 49.5305 41.6068 49.6845 41.7608C49.8385 41.9148 49.9155 42.1054 49.9155 42.3328C49.9155 42.5601 49.8385 42.7508 49.6845 42.9048C49.5305 43.0588 49.3435 43.1358 49.1235 43.1358ZM49.7395 43.9388V49.9998H48.4855V43.9388H49.7395ZM52.6399 44.8188C52.8232 44.5108 53.0652 44.2724 53.3659 44.1038C53.6739 43.9278 54.0369 43.8398 54.4549 43.8398V45.1378H54.1359C53.6446 45.1378 53.2706 45.2624 53.0139 45.5118C52.7646 45.7611 52.6399 46.1938 52.6399 46.8098V49.9998H51.3859V43.9388H52.6399V44.8188ZM57.8076 50.0988C57.3309 50.0988 56.9019 50.0144 56.5206 49.8458C56.1466 49.6698 55.8496 49.4351 55.6296 49.1418C55.4096 48.8411 55.2923 48.5074 55.2776 48.1408H56.5756C56.5976 48.3974 56.7186 48.6138 56.9386 48.7898C57.1659 48.9584 57.4483 49.0428 57.7856 49.0428C58.1376 49.0428 58.4089 48.9768 58.5996 48.8448C58.7976 48.7054 58.8966 48.5294 58.8966 48.3168C58.8966 48.0894 58.7866 47.9208 58.5666 47.8108C58.3539 47.7008 58.0129 47.5798 57.5436 47.4478C57.0889 47.3231 56.7186 47.2021 56.4326 47.0848C56.1466 46.9674 55.8973 46.7878 55.6846 46.5458C55.4793 46.3038 55.3766 45.9848 55.3766 45.5888C55.3766 45.2661 55.4719 44.9728 55.6626 44.7088C55.8533 44.4374 56.1246 44.2248 56.4766 44.0708C56.8359 43.9168 57.2466 43.8398 57.7086 43.8398C58.3979 43.8398 58.9516 44.0158 59.3696 44.3678C59.7949 44.7124 60.0223 45.1854 60.0516 45.7868H58.7976C58.7756 45.5154 58.6656 45.2991 58.4676 45.1378C58.2696 44.9764 58.0019 44.8958 57.6646 44.8958C57.3346 44.8958 57.0816 44.9581 56.9056 45.0828C56.7296 45.2074 56.6416 45.3724 56.6416 45.5778C56.6416 45.7391 56.7003 45.8748 56.8176 45.9848C56.9349 46.0948 57.0779 46.1828 57.2466 46.2488C57.4153 46.3074 57.6646 46.3844 57.9946 46.4798C58.4346 46.5971 58.7939 46.7181 59.0726 46.8428C59.3586 46.9601 59.6043 47.1361 59.8096 47.3708C60.0149 47.6054 60.1213 47.9171 60.1286 48.3058C60.1286 48.6504 60.0333 48.9584 59.8426 49.2298C59.6519 49.5011 59.3806 49.7138 59.0286 49.8678C58.6839 50.0218 58.2769 50.0988 57.8076 50.0988ZM62.9466 44.9618V48.3168C62.9466 48.5441 62.9979 48.7091 63.1006 48.8118C63.2106 48.9071 63.3939 48.9548 63.6506 48.9548H64.4206V49.9998H63.4306C62.8659 49.9998 62.4332 49.8678 62.1326 49.6038C61.8319 49.3398 61.6816 48.9108 61.6816 48.3168V44.9618H60.9666V43.9388H61.6816V42.4318H62.9466V43.9388H64.4206V44.9618H62.9466ZM74.7148 49.9998H73.4608L69.6878 44.2908V49.9998H68.4338V42.3438H69.6878L73.4608 48.0418V42.3438H74.7148V49.9998ZM75.9435 46.9418C75.9435 46.3331 76.0682 45.7941 76.3175 45.3248C76.5742 44.8554 76.9188 44.4924 77.3515 44.2358C77.7915 43.9718 78.2755 43.8398 78.8035 43.8398C79.2802 43.8398 79.6945 43.9351 80.0465 44.1258C80.4058 44.3091 80.6918 44.5401 80.9045 44.8188V43.9388H82.1695V49.9998H80.9045V49.0978C80.6918 49.3838 80.4022 49.6221 80.0355 49.8128C79.6688 50.0034 79.2508 50.0988 78.7815 50.0988C78.2608 50.0988 77.7842 49.9668 77.3515 49.7028C76.9188 49.4314 76.5742 49.0574 76.3175 48.5808C76.0682 48.0968 75.9435 47.5504 75.9435 46.9418ZM80.9045 46.9638C80.9045 46.5458 80.8165 46.1828 80.6405 45.8748C80.4718 45.5668 80.2482 45.3321 79.9695 45.1708C79.6908 45.0094 79.3902 44.9288 79.0675 44.9288C78.7448 44.9288 78.4442 45.0094 78.1655 45.1708C77.8868 45.3248 77.6595 45.5558 77.4835 45.8638C77.3148 46.1644 77.2305 46.5238 77.2305 46.9418C77.2305 47.3598 77.3148 47.7264 77.4835 48.0418C77.6595 48.3571 77.8868 48.5991 78.1655 48.7678C78.4515 48.9291 78.7522 49.0098 79.0675 49.0098C79.3902 49.0098 79.6908 48.9291 79.9695 48.7678C80.2482 48.6064 80.4718 48.3718 80.6405 48.0638C80.8165 47.7484 80.9045 47.3818 80.9045 46.9638ZM91.1536 43.8398C91.6302 43.8398 92.0556 43.9388 92.4296 44.1368C92.8109 44.3348 93.1079 44.6281 93.3206 45.0168C93.5406 45.4054 93.6506 45.8748 93.6506 46.4248V49.9998H92.4076V46.6118C92.4076 46.0691 92.2719 45.6548 92.0006 45.3688C91.7292 45.0754 91.3589 44.9288 90.8896 44.9288C90.4202 44.9288 90.0462 45.0754 89.7676 45.3688C89.4962 45.6548 89.3606 46.0691 89.3606 46.6118V49.9998H88.1176V46.6118C88.1176 46.0691 87.9819 45.6548 87.7106 45.3688C87.4392 45.0754 87.0689 44.9288 86.5996 44.9288C86.1302 44.9288 85.7562 45.0754 85.4776 45.3688C85.2062 45.6548 85.0706 46.0691 85.0706 46.6118V49.9998H83.8166V43.9388H85.0706V44.6318C85.2759 44.3824 85.5362 44.1881 85.8516 44.0488C86.1669 43.9094 86.5042 43.8398 86.8636 43.8398C87.3476 43.8398 87.7802 43.9424 88.1616 44.1478C88.5429 44.3531 88.8362 44.6501 89.0416 45.0388C89.2249 44.6721 89.5109 44.3824 89.8996 44.1698C90.2882 43.9498 90.7062 43.8398 91.1536 43.8398ZM100.801 46.8208C100.801 47.0481 100.787 47.2534 100.757 47.4368H96.1263C96.1629 47.9208 96.3426 48.3094 96.6653 48.6028C96.9879 48.8961 97.3839 49.0428 97.8533 49.0428C98.5279 49.0428 99.0046 48.7604 99.2833 48.1958H100.636C100.453 48.7531 100.119 49.2114 99.6353 49.5708C99.1586 49.9228 98.5646 50.0988 97.8533 50.0988C97.2739 50.0988 96.7533 49.9704 96.2913 49.7138C95.8366 49.4498 95.4773 49.0831 95.2133 48.6138C94.9566 48.1371 94.8283 47.5871 94.8283 46.9638C94.8283 46.3404 94.9529 45.7941 95.2023 45.3248C95.4589 44.8481 95.8146 44.4814 96.2693 44.2248C96.7313 43.9681 97.2593 43.8398 97.8533 43.8398C98.4253 43.8398 98.9349 43.9644 99.3823 44.2138C99.8296 44.4631 100.178 44.8151 100.427 45.2698C100.677 45.7171 100.801 46.2341 100.801 46.8208ZM99.4923 46.4248C99.4849 45.9628 99.3199 45.5924 98.9973 45.3138C98.6746 45.0351 98.2749 44.8958 97.7983 44.8958C97.3656 44.8958 96.9953 45.0351 96.6873 45.3138C96.3793 45.5851 96.1959 45.9554 96.1373 46.4248H99.4923ZM105.522 42.5308L106.017 43.4108L104.51 43.9718L106.017 44.5328L105.511 45.4348L104.257 44.4448L104.488 46.0398H103.476L103.685 44.4448L102.431 45.4568L101.903 44.5218L103.399 43.9608L101.903 43.4218L102.409 42.5198L103.696 43.5098L103.476 41.9038H104.499L104.257 43.5098L105.522 42.5308Z" fill="#595959"/>
<path d="M271.079 48.9878H273.664V49.9998H269.825V42.3548H271.079V48.9878ZM274.295 46.9418C274.295 46.3331 274.42 45.7941 274.669 45.3248C274.926 44.8554 275.27 44.4924 275.703 44.2358C276.143 43.9718 276.627 43.8398 277.155 43.8398C277.632 43.8398 278.046 43.9351 278.398 44.1258C278.757 44.3091 279.043 44.5401 279.256 44.8188V43.9388H280.521V49.9998H279.256V49.0978C279.043 49.3838 278.754 49.6221 278.387 49.8128C278.02 50.0034 277.602 50.0988 277.133 50.0988C276.612 50.0988 276.136 49.9668 275.703 49.7028C275.27 49.4314 274.926 49.0574 274.669 48.5808C274.42 48.0968 274.295 47.5504 274.295 46.9418ZM279.256 46.9638C279.256 46.5458 279.168 46.1828 278.992 45.8748C278.823 45.5668 278.6 45.3321 278.321 45.1708C278.042 45.0094 277.742 44.9288 277.419 44.9288C277.096 44.9288 276.796 45.0094 276.517 45.1708C276.238 45.3248 276.011 45.5558 275.835 45.8638C275.666 46.1644 275.582 46.5238 275.582 46.9418C275.582 47.3598 275.666 47.7264 275.835 48.0418C276.011 48.3571 276.238 48.5991 276.517 48.7678C276.803 48.9291 277.104 49.0098 277.419 49.0098C277.742 49.0098 278.042 48.9291 278.321 48.7678C278.6 48.6064 278.823 48.3718 278.992 48.0638C279.168 47.7484 279.256 47.3818 279.256 46.9638ZM284.368 50.0988C283.891 50.0988 283.462 50.0144 283.081 49.8458C282.707 49.6698 282.41 49.4351 282.19 49.1418C281.97 48.8411 281.853 48.5074 281.838 48.1408H283.136C283.158 48.3974 283.279 48.6138 283.499 48.7898C283.726 48.9584 284.009 49.0428 284.346 49.0428C284.698 49.0428 284.969 48.9768 285.16 48.8448C285.358 48.7054 285.457 48.5294 285.457 48.3168C285.457 48.0894 285.347 47.9208 285.127 47.8108C284.914 47.7008 284.573 47.5798 284.104 47.4478C283.649 47.3231 283.279 47.2021 282.993 47.0848C282.707 46.9674 282.458 46.7878 282.245 46.5458C282.04 46.3038 281.937 45.9848 281.937 45.5888C281.937 45.2661 282.032 44.9728 282.223 44.7088C282.414 44.4374 282.685 44.2248 283.037 44.0708C283.396 43.9168 283.807 43.8398 284.269 43.8398C284.958 43.8398 285.512 44.0158 285.93 44.3678C286.355 44.7124 286.583 45.1854 286.612 45.7868H285.358C285.336 45.5154 285.226 45.2991 285.028 45.1378C284.83 44.9764 284.562 44.8958 284.225 44.8958C283.895 44.8958 283.642 44.9581 283.466 45.0828C283.29 45.2074 283.202 45.3724 283.202 45.5778C283.202 45.7391 283.261 45.8748 283.378 45.9848C283.495 46.0948 283.638 46.1828 283.807 46.2488C283.976 46.3074 284.225 46.3844 284.555 46.4798C284.995 46.5971 285.354 46.7181 285.633 46.8428C285.919 46.9601 286.165 47.1361 286.37 47.3708C286.575 47.6054 286.682 47.9171 286.689 48.3058C286.689 48.6504 286.594 48.9584 286.403 49.2298C286.212 49.5011 285.941 49.7138 285.589 49.8678C285.244 50.0218 284.837 50.0988 284.368 50.0988ZM289.507 44.9618V48.3168C289.507 48.5441 289.558 48.7091 289.661 48.8118C289.771 48.9071 289.954 48.9548 290.211 48.9548H290.981V49.9998H289.991C289.426 49.9998 288.994 49.8678 288.693 49.6038C288.392 49.3398 288.242 48.9108 288.242 48.3168V44.9618H287.527V43.9388H288.242V42.4318H289.507V43.9388H290.981V44.9618H289.507ZM301.275 49.9998H300.021L296.248 44.2908V49.9998H294.994V42.3438H296.248L300.021 48.0418V42.3438H301.275V49.9998ZM302.504 46.9418C302.504 46.3331 302.629 45.7941 302.878 45.3248C303.135 44.8554 303.479 44.4924 303.912 44.2358C304.352 43.9718 304.836 43.8398 305.364 43.8398C305.841 43.8398 306.255 43.9351 306.607 44.1258C306.966 44.3091 307.252 44.5401 307.465 44.8188V43.9388H308.73V49.9998H307.465V49.0978C307.252 49.3838 306.963 49.6221 306.596 49.8128C306.229 50.0034 305.811 50.0988 305.342 50.0988C304.821 50.0988 304.345 49.9668 303.912 49.7028C303.479 49.4314 303.135 49.0574 302.878 48.5808C302.629 48.0968 302.504 47.5504 302.504 46.9418ZM307.465 46.9638C307.465 46.5458 307.377 46.1828 307.201 45.8748C307.032 45.5668 306.809 45.3321 306.53 45.1708C306.251 45.0094 305.951 44.9288 305.628 44.9288C305.305 44.9288 305.005 45.0094 304.726 45.1708C304.447 45.3248 304.22 45.5558 304.044 45.8638C303.875 46.1644 303.791 46.5238 303.791 46.9418C303.791 47.3598 303.875 47.7264 304.044 48.0418C304.22 48.3571 304.447 48.5991 304.726 48.7678C305.012 48.9291 305.313 49.0098 305.628 49.0098C305.951 49.0098 306.251 48.9291 306.53 48.7678C306.809 48.6064 307.032 48.3718 307.201 48.0638C307.377 47.7484 307.465 47.3818 307.465 46.9638ZM317.714 43.8398C318.191 43.8398 318.616 43.9388 318.99 44.1368C319.371 44.3348 319.668 44.6281 319.881 45.0168C320.101 45.4054 320.211 45.8748 320.211 46.4248V49.9998H318.968V46.6118C318.968 46.0691 318.832 45.6548 318.561 45.3688C318.29 45.0754 317.919 44.9288 317.45 44.9288C316.981 44.9288 316.607 45.0754 316.328 45.3688C316.057 45.6548 315.921 46.0691 315.921 46.6118V49.9998H314.678V46.6118C314.678 46.0691 314.542 45.6548 314.271 45.3688C314 45.0754 313.629 44.9288 313.16 44.9288C312.691 44.9288 312.317 45.0754 312.038 45.3688C311.767 45.6548 311.631 46.0691 311.631 46.6118V49.9998H310.377V43.9388H311.631V44.6318C311.836 44.3824 312.097 44.1881 312.412 44.0488C312.727 43.9094 313.065 43.8398 313.424 43.8398C313.908 43.8398 314.341 43.9424 314.722 44.1478C315.103 44.3531 315.397 44.6501 315.602 45.0388C315.785 44.6721 316.071 44.3824 316.46 44.1698C316.849 43.9498 317.267 43.8398 317.714 43.8398ZM327.362 46.8208C327.362 47.0481 327.347 47.2534 327.318 47.4368H322.687C322.723 47.9208 322.903 48.3094 323.226 48.6028C323.548 48.8961 323.944 49.0428 324.414 49.0428C325.088 49.0428 325.565 48.7604 325.844 48.1958H327.197C327.013 48.7531 326.68 49.2114 326.196 49.5708C325.719 49.9228 325.125 50.0988 324.414 50.0988C323.834 50.0988 323.314 49.9704 322.852 49.7138C322.397 49.4498 322.038 49.0831 321.774 48.6138C321.517 48.1371 321.389 47.5871 321.389 46.9638C321.389 46.3404 321.513 45.7941 321.763 45.3248C322.019 44.8481 322.375 44.4814 322.83 44.2248C323.292 43.9681 323.82 43.8398 324.414 43.8398C324.986 43.8398 325.495 43.9644 325.943 44.2138C326.39 44.4631 326.738 44.8151 326.988 45.2698C327.237 45.7171 327.362 46.2341 327.362 46.8208ZM326.053 46.4248C326.045 45.9628 325.88 45.5924 325.558 45.3138C325.235 45.0351 324.835 44.8958 324.359 44.8958C323.926 44.8958 323.556 45.0351 323.248 45.3138C322.94 45.5851 322.756 45.9554 322.698 46.4248H326.053Z" fill="#595959"/>
<rect x="42.3997" y="126.241" width="416.999" height="30.9412" fill="white" stroke="#BBBBBB" stroke-width="0.799644"/>
<path d="M50.8769 108.05V115.695H49.6229V110.459L47.2909 115.695H46.4219L44.0789 110.459V115.695H42.8249V108.05H44.1779L46.8619 114.045L49.5349 108.05H50.8769ZM55.1541 115.794C54.5821 115.794 54.0651 115.665 53.6031 115.409C53.1411 115.145 52.7781 114.778 52.5141 114.309C52.2501 113.832 52.1181 113.282 52.1181 112.659C52.1181 112.043 52.2537 111.496 52.5251 111.02C52.7964 110.543 53.1667 110.176 53.6361 109.92C54.1054 109.663 54.6297 109.535 55.2091 109.535C55.7884 109.535 56.3127 109.663 56.7821 109.92C57.2514 110.176 57.6217 110.543 57.8931 111.02C58.1644 111.496 58.3001 112.043 58.3001 112.659C58.3001 113.275 58.1607 113.821 57.8821 114.298C57.6034 114.774 57.2221 115.145 56.7381 115.409C56.2614 115.665 55.7334 115.794 55.1541 115.794ZM55.1541 114.705C55.4767 114.705 55.7774 114.628 56.0561 114.474C56.3421 114.32 56.5731 114.089 56.7491 113.781C56.9251 113.473 57.0131 113.099 57.0131 112.659C57.0131 112.219 56.9287 111.848 56.7601 111.548C56.5914 111.24 56.3677 111.009 56.0891 110.855C55.8104 110.701 55.5097 110.624 55.1871 110.624C54.8644 110.624 54.5637 110.701 54.2851 110.855C54.0137 111.009 53.7974 111.24 53.6361 111.548C53.4747 111.848 53.3941 112.219 53.3941 112.659C53.3941 113.311 53.5591 113.817 53.8891 114.177C54.2264 114.529 54.6481 114.705 55.1541 114.705ZM60.7937 110.536C61.0064 110.242 61.2961 110.004 61.6627 109.821C62.0367 109.63 62.4511 109.535 62.9057 109.535C63.4411 109.535 63.9251 109.663 64.3577 109.92C64.7904 110.176 65.1314 110.543 65.3807 111.02C65.6301 111.489 65.7547 112.028 65.7547 112.637C65.7547 113.245 65.6301 113.792 65.3807 114.276C65.1314 114.752 64.7867 115.126 64.3467 115.398C63.9141 115.662 63.4337 115.794 62.9057 115.794C62.4364 115.794 62.0184 115.702 61.6517 115.519C61.2924 115.335 61.0064 115.101 60.7937 114.815V115.695H59.5397V107.555H60.7937V110.536ZM64.4787 112.637C64.4787 112.219 64.3907 111.859 64.2147 111.559C64.0461 111.251 63.8187 111.02 63.5327 110.866C63.2541 110.704 62.9534 110.624 62.6307 110.624C62.3154 110.624 62.0147 110.704 61.7287 110.866C61.4501 111.027 61.2227 111.262 61.0467 111.57C60.8781 111.878 60.7937 112.241 60.7937 112.659C60.7937 113.077 60.8781 113.443 61.0467 113.759C61.2227 114.067 61.4501 114.301 61.7287 114.463C62.0147 114.624 62.3154 114.705 62.6307 114.705C62.9534 114.705 63.2541 114.624 63.5327 114.463C63.8187 114.294 64.0461 114.052 64.2147 113.737C64.3907 113.421 64.4787 113.055 64.4787 112.637ZM67.6328 108.831C67.4055 108.831 67.2148 108.754 67.0608 108.6C66.9068 108.446 66.8298 108.255 66.8298 108.028C66.8298 107.8 66.9068 107.61 67.0608 107.456C67.2148 107.302 67.4055 107.225 67.6328 107.225C67.8528 107.225 68.0398 107.302 68.1938 107.456C68.3478 107.61 68.4248 107.8 68.4248 108.028C68.4248 108.255 68.3478 108.446 68.1938 108.6C68.0398 108.754 67.8528 108.831 67.6328 108.831ZM68.2488 109.634V115.695H66.9948V109.634H68.2488ZM71.1492 107.555V115.695H69.8952V107.555H71.1492ZM78.3506 112.516C78.3506 112.743 78.3359 112.948 78.3066 113.132H73.6756C73.7122 113.616 73.8919 114.004 74.2146 114.298C74.5372 114.591 74.9332 114.738 75.4026 114.738C76.0772 114.738 76.5539 114.455 76.8326 113.891H78.1856C78.0022 114.448 77.6686 114.906 77.1846 115.266C76.7079 115.618 76.1139 115.794 75.4026 115.794C74.8232 115.794 74.3026 115.665 73.8406 115.409C73.3859 115.145 73.0266 114.778 72.7626 114.309C72.5059 113.832 72.3776 113.282 72.3776 112.659C72.3776 112.035 72.5022 111.489 72.7516 111.02C73.0082 110.543 73.3639 110.176 73.8186 109.92C74.2806 109.663 74.8086 109.535 75.4026 109.535C75.9746 109.535 76.4842 109.659 76.9316 109.909C77.3789 110.158 77.7272 110.51 77.9766 110.965C78.2259 111.412 78.3506 111.929 78.3506 112.516ZM77.0416 112.12C77.0342 111.658 76.8692 111.287 76.5466 111.009C76.2239 110.73 75.8242 110.591 75.3476 110.591C74.9149 110.591 74.5446 110.73 74.2366 111.009C73.9286 111.28 73.7452 111.65 73.6866 112.12H77.0416ZM88.7231 115.695H87.4691L83.6961 109.986V115.695H82.4421V108.039H83.6961L87.4691 113.737V108.039H88.7231V115.695ZM92.9988 115.794C92.4268 115.794 91.9098 115.665 91.4478 115.409C90.9858 115.145 90.6228 114.778 90.3588 114.309C90.0948 113.832 89.9628 113.282 89.9628 112.659C89.9628 112.043 90.0985 111.496 90.3698 111.02C90.6411 110.543 91.0115 110.176 91.4808 109.92C91.9501 109.663 92.4745 109.535 93.0538 109.535C93.6331 109.535 94.1575 109.663 94.6268 109.92C95.0961 110.176 95.4665 110.543 95.7378 111.02C96.0091 111.496 96.1448 112.043 96.1448 112.659C96.1448 113.275 96.0055 113.821 95.7268 114.298C95.4481 114.774 95.0668 115.145 94.5828 115.409C94.1061 115.665 93.5781 115.794 92.9988 115.794ZM92.9988 114.705C93.3215 114.705 93.6221 114.628 93.9008 114.474C94.1868 114.32 94.4178 114.089 94.5938 113.781C94.7698 113.473 94.8578 113.099 94.8578 112.659C94.8578 112.219 94.7735 111.848 94.6048 111.548C94.4361 111.24 94.2125 111.009 93.9338 110.855C93.6551 110.701 93.3545 110.624 93.0318 110.624C92.7091 110.624 92.4085 110.701 92.1298 110.855C91.8585 111.009 91.6421 111.24 91.4808 111.548C91.3195 111.848 91.2388 112.219 91.2388 112.659C91.2388 113.311 91.4038 113.817 91.7338 114.177C92.0711 114.529 92.4928 114.705 92.9988 114.705ZM100.871 108.226L101.366 109.106L99.8594 109.667L101.366 110.228L100.86 111.13L99.6064 110.14L99.8374 111.735H98.8254L99.0344 110.14L97.7804 111.152L97.2524 110.217L98.7484 109.656L97.2524 109.117L97.7584 108.215L99.0454 109.205L98.8254 107.599H99.8484L99.6064 109.205L100.871 108.226Z" fill="#595959"/>
<rect x="42.3997" y="191.937" width="416.999" height="30.9412" fill="white" stroke="#BBBBBB" stroke-width="0.799644"/>
<path d="M44.0789 174.759V177.003H46.7189V178.026H44.0789V180.369H47.0489V181.392H42.8249V173.736H47.0489V174.759H44.0789ZM55.9304 175.232C56.4071 175.232 56.8324 175.331 57.2064 175.529C57.5878 175.727 57.8848 176.021 58.0974 176.409C58.3174 176.798 58.4274 177.267 58.4274 177.817V181.392H57.1844V178.004C57.1844 177.462 57.0488 177.047 56.7774 176.761C56.5061 176.468 56.1358 176.321 55.6664 176.321C55.1971 176.321 54.8231 176.468 54.5444 176.761C54.2731 177.047 54.1374 177.462 54.1374 178.004V181.392H52.8944V178.004C52.8944 177.462 52.7588 177.047 52.4874 176.761C52.2161 176.468 51.8458 176.321 51.3764 176.321C50.9071 176.321 50.5331 176.468 50.2544 176.761C49.9831 177.047 49.8474 177.462 49.8474 178.004V181.392H48.5934V175.331H49.8474V176.024C50.0528 175.775 50.3131 175.581 50.6284 175.441C50.9438 175.302 51.2811 175.232 51.6404 175.232C52.1244 175.232 52.5571 175.335 52.9384 175.54C53.3198 175.746 53.6131 176.043 53.8184 176.431C54.0018 176.065 54.2878 175.775 54.6764 175.562C55.0651 175.342 55.4831 175.232 55.9304 175.232ZM59.6051 178.334C59.6051 177.726 59.7298 177.187 59.9791 176.717C60.2358 176.248 60.5805 175.885 61.0131 175.628C61.4531 175.364 61.9371 175.232 62.4651 175.232C62.9418 175.232 63.3561 175.328 63.7081 175.518C64.0675 175.702 64.3535 175.933 64.5661 176.211V175.331H65.8311V181.392H64.5661V180.49C64.3535 180.776 64.0638 181.015 63.6971 181.205C63.3305 181.396 62.9125 181.491 62.4431 181.491C61.9225 181.491 61.4458 181.359 61.0131 181.095C60.5805 180.824 60.2358 180.45 59.9791 179.973C59.7298 179.489 59.6051 178.943 59.6051 178.334ZM64.5661 178.356C64.5661 177.938 64.4781 177.575 64.3021 177.267C64.1335 176.959 63.9098 176.725 63.6311 176.563C63.3525 176.402 63.0518 176.321 62.7291 176.321C62.4065 176.321 62.1058 176.402 61.8271 176.563C61.5485 176.717 61.3211 176.948 61.1451 177.256C60.9765 177.557 60.8921 177.916 60.8921 178.334C60.8921 178.752 60.9765 179.119 61.1451 179.434C61.3211 179.75 61.5485 179.992 61.8271 180.16C62.1131 180.322 62.4138 180.402 62.7291 180.402C63.0518 180.402 63.3525 180.322 63.6311 180.16C63.9098 179.999 64.1335 179.764 64.3021 179.456C64.4781 179.141 64.5661 178.774 64.5661 178.356ZM68.1162 174.528C67.8889 174.528 67.6982 174.451 67.5442 174.297C67.3902 174.143 67.3132 173.953 67.3132 173.725C67.3132 173.498 67.3902 173.307 67.5442 173.153C67.6982 172.999 67.8889 172.922 68.1162 172.922C68.3362 172.922 68.5232 172.999 68.6772 173.153C68.8312 173.307 68.9082 173.498 68.9082 173.725C68.9082 173.953 68.8312 174.143 68.6772 174.297C68.5232 174.451 68.3362 174.528 68.1162 174.528ZM68.7322 175.331V181.392H67.4782V175.331H68.7322ZM71.6326 173.252V181.392H70.3786V173.252H71.6326ZM77.3904 173.747V181.392H76.1364V173.747H77.3904ZM78.6188 178.334C78.6188 177.726 78.7435 177.187 78.9928 176.717C79.2495 176.248 79.5941 175.885 80.0268 175.628C80.4668 175.364 80.9545 175.232 81.4898 175.232C81.8858 175.232 82.2745 175.32 82.6558 175.496C83.0445 175.665 83.3525 175.892 83.5798 176.178V173.252H84.8448V181.392H83.5798V180.479C83.3745 180.773 83.0885 181.015 82.7218 181.205C82.3625 181.396 81.9481 181.491 81.4788 181.491C80.9508 181.491 80.4668 181.359 80.0268 181.095C79.5941 180.824 79.2495 180.45 78.9928 179.973C78.7435 179.489 78.6188 178.943 78.6188 178.334ZM83.5798 178.356C83.5798 177.938 83.4918 177.575 83.3158 177.267C83.1471 176.959 82.9235 176.725 82.6448 176.563C82.3661 176.402 82.0655 176.321 81.7428 176.321C81.4201 176.321 81.1195 176.402 80.8408 176.563C80.5621 176.717 80.3348 176.948 80.1588 177.256C79.9901 177.557 79.9058 177.916 79.9058 178.334C79.9058 178.752 79.9901 179.119 80.1588 179.434C80.3348 179.75 80.5621 179.992 80.8408 180.16C81.1268 180.322 81.4275 180.402 81.7428 180.402C82.0655 180.402 82.3661 180.322 82.6448 180.16C82.9235 179.999 83.1471 179.764 83.3158 179.456C83.4918 179.141 83.5798 178.774 83.5798 178.356ZM89.9789 173.923L90.4739 174.803L88.9669 175.364L90.4739 175.925L89.9679 176.827L88.7139 175.837L88.9449 177.432H87.9329L88.1419 175.837L86.8879 176.849L86.3599 175.914L87.8559 175.353L86.3599 174.814L86.8659 173.912L88.1529 174.902L87.9329 173.296H88.9559L88.7139 174.902L89.9789 173.923Z" fill="#595959"/>
<path d="M42.3997 257.4H234.6V288.6H42.3997V257.4Z" fill="white" stroke="#BBBBBB" stroke-width="0.799644"/>
<path d="M48.1709 241.721C48.1709 242.11 48.0792 242.476 47.8959 242.821C47.7125 243.166 47.4192 243.448 47.0159 243.668C46.6125 243.881 46.0955 243.987 45.4649 243.987H44.0789V247.089H42.8249V239.444H45.4649C46.0515 239.444 46.5465 239.547 46.9499 239.752C47.3605 239.95 47.6649 240.221 47.8629 240.566C48.0682 240.911 48.1709 241.296 48.1709 241.721ZM45.4649 242.964C45.9415 242.964 46.2972 242.858 46.5319 242.645C46.7665 242.425 46.8839 242.117 46.8839 241.721C46.8839 240.885 46.4109 240.467 45.4649 240.467H44.0789V242.964H45.4649ZM48.9489 244.031C48.9489 243.422 49.0735 242.883 49.3229 242.414C49.5795 241.945 49.9242 241.582 50.3569 241.325C50.7969 241.061 51.2809 240.929 51.8089 240.929C52.2855 240.929 52.6999 241.024 53.0519 241.215C53.4112 241.398 53.6972 241.629 53.9099 241.908V241.028H55.1749V247.089H53.9099V246.187C53.6972 246.473 53.4075 246.711 53.0409 246.902C52.6742 247.093 52.2562 247.188 51.7869 247.188C51.2662 247.188 50.7895 247.056 50.3569 246.792C49.9242 246.521 49.5795 246.147 49.3229 245.67C49.0735 245.186 48.9489 244.64 48.9489 244.031ZM53.9099 244.053C53.9099 243.635 53.8219 243.272 53.6459 242.964C53.4772 242.656 53.2535 242.421 52.9749 242.26C52.6962 242.099 52.3955 242.018 52.0729 242.018C51.7502 242.018 51.4495 242.099 51.1709 242.26C50.8922 242.414 50.6649 242.645 50.4889 242.953C50.3202 243.254 50.2359 243.613 50.2359 244.031C50.2359 244.449 50.3202 244.816 50.4889 245.131C50.6649 245.446 50.8922 245.688 51.1709 245.857C51.4569 246.018 51.7575 246.099 52.0729 246.099C52.3955 246.099 52.6962 246.018 52.9749 245.857C53.2535 245.696 53.4772 245.461 53.6459 245.153C53.8219 244.838 53.9099 244.471 53.9099 244.053ZM59.0219 247.188C58.5453 247.188 58.1163 247.104 57.7349 246.935C57.3609 246.759 57.0639 246.524 56.8439 246.231C56.6239 245.93 56.5066 245.597 56.4919 245.23H57.7899C57.8119 245.487 57.9329 245.703 58.1529 245.879C58.3803 246.048 58.6626 246.132 58.9999 246.132C59.3519 246.132 59.6233 246.066 59.8139 245.934C60.0119 245.795 60.1109 245.619 60.1109 245.406C60.1109 245.179 60.0009 245.01 59.7809 244.9C59.5683 244.79 59.2273 244.669 58.7579 244.537C58.3033 244.412 57.9329 244.291 57.6469 244.174C57.3609 244.057 57.1116 243.877 56.8989 243.635C56.6936 243.393 56.5909 243.074 56.5909 242.678C56.5909 242.355 56.6863 242.062 56.8769 241.798C57.0676 241.527 57.3389 241.314 57.6909 241.16C58.0503 241.006 58.4609 240.929 58.9229 240.929C59.6123 240.929 60.1659 241.105 60.5839 241.457C61.0093 241.802 61.2366 242.275 61.2659 242.876H60.0119C59.9899 242.605 59.8799 242.388 59.6819 242.227C59.4839 242.066 59.2163 241.985 58.8789 241.985C58.5489 241.985 58.2959 242.047 58.1199 242.172C57.9439 242.297 57.8559 242.462 57.8559 242.667C57.8559 242.828 57.9146 242.964 58.0319 243.074C58.1493 243.184 58.2923 243.272 58.4609 243.338C58.6296 243.397 58.8789 243.474 59.2089 243.569C59.6489 243.686 60.0083 243.807 60.2869 243.932C60.5729 244.049 60.8186 244.225 61.0239 244.46C61.2293 244.695 61.3356 245.006 61.3429 245.395C61.3429 245.74 61.2476 246.048 61.0569 246.319C60.8663 246.59 60.5949 246.803 60.2429 246.957C59.8983 247.111 59.4913 247.188 59.0219 247.188ZM64.8979 247.188C64.4213 247.188 63.9923 247.104 63.6109 246.935C63.2369 246.759 62.9399 246.524 62.7199 246.231C62.4999 245.93 62.3826 245.597 62.3679 245.23H63.6659C63.6879 245.487 63.8089 245.703 64.0289 245.879C64.2563 246.048 64.5386 246.132 64.8759 246.132C65.2279 246.132 65.4993 246.066 65.6899 245.934C65.8879 245.795 65.9869 245.619 65.9869 245.406C65.9869 245.179 65.8769 245.01 65.6569 244.9C65.4443 244.79 65.1033 244.669 64.6339 244.537C64.1793 244.412 63.8089 244.291 63.5229 244.174C63.2369 244.057 62.9876 243.877 62.7749 243.635C62.5696 243.393 62.4669 243.074 62.4669 242.678C62.4669 242.355 62.5623 242.062 62.7529 241.798C62.9436 241.527 63.2149 241.314 63.5669 241.16C63.9263 241.006 64.3369 240.929 64.7989 240.929C65.4883 240.929 66.0419 241.105 66.4599 241.457C66.8853 241.802 67.1126 242.275 67.1419 242.876H65.8879C65.8659 242.605 65.7559 242.388 65.5579 242.227C65.3599 242.066 65.0923 241.985 64.7549 241.985C64.4249 241.985 64.1719 242.047 63.9959 242.172C63.8199 242.297 63.7319 242.462 63.7319 242.667C63.7319 242.828 63.7906 242.964 63.9079 243.074C64.0253 243.184 64.1683 243.272 64.3369 243.338C64.5056 243.397 64.7549 243.474 65.0849 243.569C65.5249 243.686 65.8843 243.807 66.1629 243.932C66.4489 244.049 66.6946 244.225 66.8999 244.46C67.1053 244.695 67.2116 245.006 67.2189 245.395C67.2189 245.74 67.1236 246.048 66.9329 246.319C66.7423 246.59 66.4709 246.803 66.1189 246.957C65.7743 247.111 65.3673 247.188 64.8979 247.188ZM76.7139 241.028L74.8329 247.089H73.5129L72.2919 242.612L71.0709 247.089H69.7509L67.8589 241.028H69.1349L70.3999 245.901L71.6869 241.028H72.9959L74.2279 245.879L75.4819 241.028H76.7139ZM80.28 247.188C79.708 247.188 79.191 247.06 78.729 246.803C78.267 246.539 77.904 246.172 77.64 245.703C77.376 245.226 77.244 244.676 77.244 244.053C77.244 243.437 77.3797 242.891 77.651 242.414C77.9224 241.937 78.2927 241.571 78.762 241.314C79.2314 241.057 79.7557 240.929 80.335 240.929C80.9144 240.929 81.4387 241.057 81.908 241.314C82.3774 241.571 82.7477 241.937 83.0191 242.414C83.2904 242.891 83.4261 243.437 83.4261 244.053C83.4261 244.669 83.2867 245.215 83.0081 245.692C82.7294 246.169 82.3481 246.539 81.8641 246.803C81.3874 247.06 80.8594 247.188 80.28 247.188ZM80.28 246.099C80.6027 246.099 80.9034 246.022 81.1821 245.868C81.4681 245.714 81.6991 245.483 81.8751 245.175C82.051 244.867 82.139 244.493 82.139 244.053C82.139 243.613 82.0547 243.243 81.886 242.942C81.7174 242.634 81.4937 242.403 81.2151 242.249C80.9364 242.095 80.6357 242.018 80.313 242.018C79.9904 242.018 79.6897 242.095 79.411 242.249C79.1397 242.403 78.9234 242.634 78.762 242.942C78.6007 243.243 78.52 243.613 78.52 244.053C78.52 244.706 78.685 245.212 79.015 245.571C79.3524 245.923 79.774 246.099 80.28 246.099ZM85.9197 241.908C86.103 241.6 86.345 241.362 86.6457 241.193C86.9537 241.017 87.3167 240.929 87.7347 240.929V242.227H87.4157C86.9244 242.227 86.5504 242.352 86.2937 242.601C86.0444 242.85 85.9197 243.283 85.9197 243.899V247.089H84.6657V241.028H85.9197V241.908ZM88.4694 244.031C88.4694 243.422 88.594 242.883 88.8434 242.414C89.1 241.945 89.4447 241.582 89.8774 241.325C90.3174 241.061 90.805 240.929 91.3404 240.929C91.7364 240.929 92.125 241.017 92.5064 241.193C92.895 241.362 93.203 241.589 93.4304 241.875V238.949H94.6954V247.089H93.4304V246.176C93.225 246.469 92.939 246.711 92.5724 246.902C92.213 247.093 91.7987 247.188 91.3294 247.188C90.8014 247.188 90.3174 247.056 89.8774 246.792C89.4447 246.521 89.1 246.147 88.8434 245.67C88.594 245.186 88.4694 244.64 88.4694 244.031ZM93.4304 244.053C93.4304 243.635 93.3424 243.272 93.1664 242.964C92.9977 242.656 92.774 242.421 92.4954 242.26C92.2167 242.099 91.916 242.018 91.5934 242.018C91.2707 242.018 90.97 242.099 90.6914 242.26C90.4127 242.414 90.1854 242.645 90.0094 242.953C89.8407 243.254 89.7564 243.613 89.7564 244.031C89.7564 244.449 89.8407 244.816 90.0094 245.131C90.1854 245.446 90.4127 245.688 90.6914 245.857C90.9774 246.018 91.278 246.099 91.5934 246.099C91.916 246.099 92.2167 246.018 92.4954 245.857C92.774 245.696 92.9977 245.461 93.1664 245.153C93.3424 244.838 93.4304 244.471 93.4304 244.053ZM99.8295 239.62L100.324 240.5L98.8175 241.061L100.324 241.622L99.8185 242.524L98.5645 241.534L98.7955 243.129H97.7835L97.9925 241.534L96.7385 242.546L96.2105 241.611L97.7065 241.05L96.2105 240.511L96.7165 239.609L98.0035 240.599L97.7835 238.993H98.8065L98.5645 240.599L99.8295 239.62Z" fill="#595959"/>
<path d="M42.4064 334.161C42.4064 333.413 42.5787 332.742 42.9234 332.148C43.2754 331.554 43.7484 331.092 44.3424 330.762C44.9437 330.424 45.6001 330.256 46.3114 330.256C47.1254 330.256 47.8477 330.457 48.4784 330.861C49.1164 331.257 49.5784 331.821 49.8644 332.555H48.3574C48.1594 332.151 47.8844 331.851 47.5324 331.653C47.1804 331.455 46.7734 331.356 46.3114 331.356C45.8054 331.356 45.3544 331.469 44.9584 331.697C44.5624 331.924 44.2507 332.25 44.0234 332.676C43.8034 333.101 43.6934 333.596 43.6934 334.161C43.6934 334.725 43.8034 335.22 44.0234 335.646C44.2507 336.071 44.5624 336.401 44.9584 336.636C45.3544 336.863 45.8054 336.977 46.3114 336.977C46.7734 336.977 47.1804 336.878 47.5324 336.68C47.8844 336.482 48.1594 336.181 48.3574 335.778H49.8644C49.5784 336.511 49.1164 337.076 48.4784 337.472C47.8477 337.868 47.1254 338.066 46.3114 338.066C45.5927 338.066 44.9364 337.901 44.3424 337.571C43.7484 337.233 43.2754 336.768 42.9234 336.174C42.5787 335.58 42.4064 334.909 42.4064 334.161ZM53.9612 338.099C53.3892 338.099 52.8722 337.97 52.4102 337.714C51.9482 337.45 51.5852 337.083 51.3212 336.614C51.0572 336.137 50.9252 335.587 50.9252 334.964C50.9252 334.348 51.0609 333.801 51.3322 333.325C51.6035 332.848 51.9739 332.481 52.4432 332.225C52.9125 331.968 53.4369 331.84 54.0162 331.84C54.5955 331.84 55.1199 331.968 55.5892 332.225C56.0585 332.481 56.4289 332.848 56.7002 333.325C56.9715 333.801 57.1072 334.348 57.1072 334.964C57.1072 335.58 56.9679 336.126 56.6892 336.603C56.4105 337.079 56.0292 337.45 55.5452 337.714C55.0685 337.97 54.5405 338.099 53.9612 338.099ZM53.9612 337.01C54.2839 337.01 54.5845 336.933 54.8632 336.779C55.1492 336.625 55.3802 336.394 55.5562 336.086C55.7322 335.778 55.8202 335.404 55.8202 334.964C55.8202 334.524 55.7359 334.153 55.5672 333.853C55.3985 333.545 55.1749 333.314 54.8962 333.16C54.6175 333.006 54.3169 332.929 53.9942 332.929C53.6715 332.929 53.3709 333.006 53.0922 333.16C52.8209 333.314 52.6045 333.545 52.4432 333.853C52.2819 334.153 52.2012 334.524 52.2012 334.964C52.2012 335.616 52.3662 336.122 52.6962 336.482C53.0335 336.834 53.4552 337.01 53.9612 337.01ZM61.4049 331.84C61.8815 331.84 62.3069 331.939 62.6809 332.137C63.0622 332.335 63.3592 332.628 63.5719 333.017C63.7845 333.405 63.8909 333.875 63.8909 334.425V338H62.6479V334.612C62.6479 334.069 62.5122 333.655 62.2409 333.369C61.9695 333.075 61.5992 332.929 61.1299 332.929C60.6605 332.929 60.2865 333.075 60.0079 333.369C59.7365 333.655 59.6009 334.069 59.6009 334.612V338H58.3469V331.939H59.6009V332.632C59.8062 332.382 60.0665 332.188 60.3819 332.049C60.7045 331.909 61.0455 331.84 61.4049 331.84ZM68.5484 331.84C69.0251 331.84 69.4504 331.939 69.8244 332.137C70.2057 332.335 70.5027 332.628 70.7154 333.017C70.9281 333.405 71.0344 333.875 71.0344 334.425V338H69.7914V334.612C69.7914 334.069 69.6557 333.655 69.3844 333.369C69.1131 333.075 68.7427 332.929 68.2734 332.929C67.8041 332.929 67.4301 333.075 67.1514 333.369C66.8801 333.655 66.7444 334.069 66.7444 334.612V338H65.4904V331.939H66.7444V332.632C66.9497 332.382 67.2101 332.188 67.5254 332.049C67.8481 331.909 68.1891 331.84 68.5484 331.84ZM78.189 334.821C78.189 335.048 78.1743 335.253 78.145 335.437H73.514C73.5506 335.921 73.7303 336.309 74.053 336.603C74.3756 336.896 74.7716 337.043 75.241 337.043C75.9156 337.043 76.3923 336.76 76.671 336.196H78.024C77.8406 336.753 77.507 337.211 77.023 337.571C76.5463 337.923 75.9523 338.099 75.241 338.099C74.6616 338.099 74.141 337.97 73.679 337.714C73.2243 337.45 72.865 337.083 72.601 336.614C72.3443 336.137 72.216 335.587 72.216 334.964C72.216 334.34 72.3406 333.794 72.59 333.325C72.8466 332.848 73.2023 332.481 73.657 332.225C74.119 331.968 74.647 331.84 75.241 331.84C75.813 331.84 76.3226 331.964 76.77 332.214C77.2173 332.463 77.5656 332.815 77.815 333.27C78.0643 333.717 78.189 334.234 78.189 334.821ZM76.88 334.425C76.8726 333.963 76.7076 333.592 76.385 333.314C76.0623 333.035 75.6626 332.896 75.186 332.896C74.7533 332.896 74.383 333.035 74.075 333.314C73.767 333.585 73.5836 333.955 73.525 334.425H76.88ZM79.005 334.964C79.005 334.34 79.1297 333.794 79.379 333.325C79.6357 332.848 79.9877 332.481 80.435 332.225C80.8824 331.968 81.3957 331.84 81.975 331.84C82.7084 331.84 83.3134 332.016 83.79 332.368C84.274 332.712 84.6004 333.207 84.769 333.853H83.416C83.306 333.552 83.13 333.317 82.888 333.149C82.646 332.98 82.3417 332.896 81.975 332.896C81.4617 332.896 81.051 333.079 80.743 333.446C80.4424 333.805 80.292 334.311 80.292 334.964C80.292 335.616 80.4424 336.126 80.743 336.493C81.051 336.859 81.4617 337.043 81.975 337.043C82.701 337.043 83.1814 336.724 83.416 336.086H84.769C84.593 336.702 84.263 337.193 83.779 337.56C83.295 337.919 82.6937 338.099 81.975 338.099C81.3957 338.099 80.8824 337.97 80.435 337.714C79.9877 337.45 79.6357 337.083 79.379 336.614C79.1297 336.137 79.005 335.587 79.005 334.964ZM87.4817 332.962V336.317C87.4817 336.544 87.5331 336.709 87.6357 336.812C87.7457 336.907 87.9291 336.955 88.1857 336.955H88.9557V338H87.9657C87.4011 338 86.9684 337.868 86.6677 337.604C86.3671 337.34 86.2167 336.911 86.2167 336.317V332.962H85.5017V331.939H86.2167V330.432H87.4817V331.939H88.9557V332.962H87.4817ZM101.109 331.939L99.2279 338H97.9079L96.6869 333.523L95.4659 338H94.1459L92.2539 331.939H93.5299L94.7949 336.812L96.0819 331.939H97.3909L98.6229 336.79L99.8769 331.939H101.109ZM102.684 331.136C102.457 331.136 102.266 331.059 102.112 330.905C101.958 330.751 101.881 330.56 101.881 330.333C101.881 330.105 101.958 329.915 102.112 329.761C102.266 329.607 102.457 329.53 102.684 329.53C102.904 329.53 103.091 329.607 103.245 329.761C103.399 329.915 103.476 330.105 103.476 330.333C103.476 330.56 103.399 330.751 103.245 330.905C103.091 331.059 102.904 331.136 102.684 331.136ZM103.3 331.939V338H102.046V331.939H103.3ZM106.409 332.962V336.317C106.409 336.544 106.461 336.709 106.563 336.812C106.673 336.907 106.857 336.955 107.113 336.955H107.883V338H106.893C106.329 338 105.896 337.868 105.595 337.604C105.295 337.34 105.144 336.911 105.144 336.317V332.962H104.429V331.939H105.144V330.432H106.409V331.939H107.883V332.962H106.409ZM112.174 331.84C112.636 331.84 113.047 331.939 113.406 332.137C113.773 332.335 114.059 332.628 114.264 333.017C114.477 333.405 114.583 333.875 114.583 334.425V338H113.34V334.612C113.34 334.069 113.205 333.655 112.933 333.369C112.662 333.075 112.292 332.929 111.822 332.929C111.353 332.929 110.979 333.075 110.7 333.369C110.429 333.655 110.293 334.069 110.293 334.612V338H109.039V329.86H110.293V332.643C110.506 332.386 110.774 332.188 111.096 332.049C111.426 331.909 111.786 331.84 112.174 331.84ZM124.529 331.939V338H123.275V337.285C123.077 337.534 122.817 337.732 122.494 337.879C122.179 338.018 121.842 338.088 121.482 338.088C121.006 338.088 120.577 337.989 120.195 337.791C119.821 337.593 119.524 337.299 119.304 336.911C119.092 336.522 118.985 336.053 118.985 335.503V331.939H120.228V335.316C120.228 335.858 120.364 336.276 120.635 336.57C120.907 336.856 121.277 336.999 121.746 336.999C122.216 336.999 122.586 336.856 122.857 336.57C123.136 336.276 123.275 335.858 123.275 335.316V331.939H124.529ZM128.384 338.099C127.907 338.099 127.478 338.014 127.097 337.846C126.723 337.67 126.426 337.435 126.206 337.142C125.986 336.841 125.868 336.507 125.854 336.141H127.152C127.174 336.397 127.295 336.614 127.515 336.79C127.742 336.958 128.024 337.043 128.362 337.043C128.714 337.043 128.985 336.977 129.176 336.845C129.374 336.705 129.473 336.529 129.473 336.317C129.473 336.089 129.363 335.921 129.143 335.811C128.93 335.701 128.589 335.58 128.12 335.448C127.665 335.323 127.295 335.202 127.009 335.085C126.723 334.967 126.473 334.788 126.261 334.546C126.055 334.304 125.953 333.985 125.953 333.589C125.953 333.266 126.048 332.973 126.239 332.709C126.429 332.437 126.701 332.225 127.053 332.071C127.412 331.917 127.823 331.84 128.285 331.84C128.974 331.84 129.528 332.016 129.946 332.368C130.371 332.712 130.598 333.185 130.628 333.787H129.374C129.352 333.515 129.242 333.299 129.044 333.138C128.846 332.976 128.578 332.896 128.241 332.896C127.911 332.896 127.658 332.958 127.482 333.083C127.306 333.207 127.218 333.372 127.218 333.578C127.218 333.739 127.276 333.875 127.394 333.985C127.511 334.095 127.654 334.183 127.823 334.249C127.991 334.307 128.241 334.384 128.571 334.48C129.011 334.597 129.37 334.718 129.649 334.843C129.935 334.96 130.18 335.136 130.386 335.371C130.591 335.605 130.697 335.917 130.705 336.306C130.705 336.65 130.609 336.958 130.419 337.23C130.228 337.501 129.957 337.714 129.605 337.868C129.26 338.022 128.853 338.099 128.384 338.099ZM143.057 331.939L141.176 338H139.856L138.635 333.523L137.414 338H136.094L134.202 331.939H135.478L136.743 336.812L138.03 331.939H139.339L140.571 336.79L141.825 331.939H143.057ZM144.632 331.136C144.405 331.136 144.214 331.059 144.06 330.905C143.906 330.751 143.829 330.56 143.829 330.333C143.829 330.105 143.906 329.915 144.06 329.761C144.214 329.607 144.405 329.53 144.632 329.53C144.852 329.53 145.039 329.607 145.193 329.761C145.347 329.915 145.424 330.105 145.424 330.333C145.424 330.56 145.347 330.751 145.193 330.905C145.039 331.059 144.852 331.136 144.632 331.136ZM145.248 331.939V338H143.994V331.939H145.248ZM148.358 332.962V336.317C148.358 336.544 148.409 336.709 148.512 336.812C148.622 336.907 148.805 336.955 149.062 336.955H149.832V338H148.842C148.277 338 147.844 337.868 147.544 337.604C147.243 337.34 147.093 336.911 147.093 336.317V332.962H146.378V331.939H147.093V330.432H148.358V331.939H149.832V332.962H148.358ZM154.122 331.84C154.584 331.84 154.995 331.939 155.354 332.137C155.721 332.335 156.007 332.628 156.212 333.017C156.425 333.405 156.531 333.875 156.531 334.425V338H155.288V334.612C155.288 334.069 155.153 333.655 154.881 333.369C154.61 333.075 154.24 332.929 153.77 332.929C153.301 332.929 152.927 333.075 152.648 333.369C152.377 333.655 152.241 334.069 152.241 334.612V338H150.987V329.86H152.241V332.643C152.454 332.386 152.722 332.188 153.044 332.049C153.374 331.909 153.734 331.84 154.122 331.84ZM166.444 331.939L162.726 340.849H161.428L162.66 337.901L160.273 331.939H161.67L163.375 336.559L165.146 331.939H166.444ZM170.02 338.099C169.448 338.099 168.931 337.97 168.469 337.714C168.007 337.45 167.644 337.083 167.38 336.614C167.116 336.137 166.984 335.587 166.984 334.964C166.984 334.348 167.119 333.801 167.391 333.325C167.662 332.848 168.032 332.481 168.502 332.225C168.971 331.968 169.495 331.84 170.075 331.84C170.654 331.84 171.178 331.968 171.648 332.225C172.117 332.481 172.487 332.848 172.759 333.325C173.03 333.801 173.166 334.348 173.166 334.964C173.166 335.58 173.026 336.126 172.748 336.603C172.469 337.079 172.088 337.45 171.604 337.714C171.127 337.97 170.599 338.099 170.02 338.099ZM170.02 337.01C170.342 337.01 170.643 336.933 170.922 336.779C171.208 336.625 171.439 336.394 171.615 336.086C171.791 335.778 171.879 335.404 171.879 334.964C171.879 334.524 171.794 334.153 171.626 333.853C171.457 333.545 171.233 333.314 170.955 333.16C170.676 333.006 170.375 332.929 170.053 332.929C169.73 332.929 169.429 333.006 169.151 333.16C168.879 333.314 168.663 333.545 168.502 333.853C168.34 334.153 168.26 334.524 168.26 334.964C168.26 335.616 168.425 336.122 168.755 336.482C169.092 336.834 169.514 337.01 170.02 337.01ZM179.894 331.939V338H178.64V337.285C178.442 337.534 178.182 337.732 177.859 337.879C177.544 338.018 177.207 338.088 176.847 338.088C176.371 338.088 175.942 337.989 175.56 337.791C175.186 337.593 174.889 337.299 174.669 336.911C174.457 336.522 174.35 336.053 174.35 335.503V331.939H175.593V335.316C175.593 335.858 175.729 336.276 176 336.57C176.272 336.856 176.642 336.999 177.111 336.999C177.581 336.999 177.951 336.856 178.222 336.57C178.501 336.276 178.64 335.858 178.64 335.316V331.939H179.894ZM182.803 332.819C182.986 332.511 183.228 332.272 183.529 332.104C183.837 331.928 184.2 331.84 184.618 331.84V333.138H184.299C183.808 333.138 183.434 333.262 183.177 333.512C182.928 333.761 182.803 334.194 182.803 334.81V338H181.549V331.939H182.803V332.819ZM190.828 338.099C190.351 338.099 189.922 338.014 189.541 337.846C189.167 337.67 188.87 337.435 188.65 337.142C188.43 336.841 188.313 336.507 188.298 336.141H189.596C189.618 336.397 189.739 336.614 189.959 336.79C190.186 336.958 190.469 337.043 190.806 337.043C191.158 337.043 191.429 336.977 191.62 336.845C191.818 336.705 191.917 336.529 191.917 336.317C191.917 336.089 191.807 335.921 191.587 335.811C191.374 335.701 191.033 335.58 190.564 335.448C190.109 335.323 189.739 335.202 189.453 335.085C189.167 334.967 188.918 334.788 188.705 334.546C188.5 334.304 188.397 333.985 188.397 333.589C188.397 333.266 188.492 332.973 188.683 332.709C188.874 332.437 189.145 332.225 189.497 332.071C189.856 331.917 190.267 331.84 190.729 331.84C191.418 331.84 191.972 332.016 192.39 332.368C192.815 332.712 193.043 333.185 193.072 333.787H191.818C191.796 333.515 191.686 333.299 191.488 333.138C191.29 332.976 191.022 332.896 190.685 332.896C190.355 332.896 190.102 332.958 189.926 333.083C189.75 333.207 189.662 333.372 189.662 333.578C189.662 333.739 189.721 333.875 189.838 333.985C189.955 334.095 190.098 334.183 190.267 334.249C190.436 334.307 190.685 334.384 191.015 334.48C191.455 334.597 191.814 334.718 192.093 334.843C192.379 334.96 192.625 335.136 192.83 335.371C193.035 335.605 193.142 335.917 193.149 336.306C193.149 336.65 193.054 336.958 192.863 337.23C192.672 337.501 192.401 337.714 192.049 337.868C191.704 338.022 191.297 338.099 190.828 338.099ZM197.133 338.099C196.561 338.099 196.044 337.97 195.582 337.714C195.12 337.45 194.757 337.083 194.493 336.614C194.229 336.137 194.097 335.587 194.097 334.964C194.097 334.348 194.233 333.801 194.504 333.325C194.775 332.848 195.146 332.481 195.615 332.225C196.084 331.968 196.609 331.84 197.188 331.84C197.767 331.84 198.292 331.968 198.761 332.225C199.23 332.481 199.601 332.848 199.872 333.325C200.143 333.801 200.279 334.348 200.279 334.964C200.279 335.58 200.14 336.126 199.861 336.603C199.582 337.079 199.201 337.45 198.717 337.714C198.24 337.97 197.712 338.099 197.133 338.099ZM197.133 337.01C197.456 337.01 197.756 336.933 198.035 336.779C198.321 336.625 198.552 336.394 198.728 336.086C198.904 335.778 198.992 335.404 198.992 334.964C198.992 334.524 198.908 334.153 198.739 333.853C198.57 333.545 198.347 333.314 198.068 333.16C197.789 333.006 197.489 332.929 197.166 332.929C196.843 332.929 196.543 333.006 196.264 333.16C195.993 333.314 195.776 333.545 195.615 333.853C195.454 334.153 195.373 334.524 195.373 334.964C195.373 335.616 195.538 336.122 195.868 336.482C196.205 336.834 196.627 337.01 197.133 337.01ZM201.101 334.964C201.101 334.34 201.225 333.794 201.475 333.325C201.731 332.848 202.083 332.481 202.531 332.225C202.978 331.968 203.491 331.84 204.071 331.84C204.804 331.84 205.409 332.016 205.886 332.368C206.37 332.712 206.696 333.207 206.865 333.853H205.512C205.402 333.552 205.226 333.317 204.984 333.149C204.742 332.98 204.437 332.896 204.071 332.896C203.557 332.896 203.147 333.079 202.839 333.446C202.538 333.805 202.388 334.311 202.388 334.964C202.388 335.616 202.538 336.126 202.839 336.493C203.147 336.859 203.557 337.043 204.071 337.043C204.797 337.043 205.277 336.724 205.512 336.086H206.865C206.689 336.702 206.359 337.193 205.875 337.56C205.391 337.919 204.789 338.099 204.071 338.099C203.491 338.099 202.978 337.97 202.531 337.714C202.083 337.45 201.731 337.083 201.475 336.614C201.225 336.137 201.101 335.587 201.101 334.964ZM208.752 331.136C208.525 331.136 208.334 331.059 208.18 330.905C208.026 330.751 207.949 330.56 207.949 330.333C207.949 330.105 208.026 329.915 208.18 329.761C208.334 329.607 208.525 329.53 208.752 329.53C208.972 329.53 209.159 329.607 209.313 329.761C209.467 329.915 209.544 330.105 209.544 330.333C209.544 330.56 209.467 330.751 209.313 330.905C209.159 331.059 208.972 331.136 208.752 331.136ZM209.368 331.939V338H208.114V331.939H209.368ZM210.597 334.942C210.597 334.333 210.721 333.794 210.971 333.325C211.227 332.855 211.572 332.492 212.005 332.236C212.445 331.972 212.929 331.84 213.457 331.84C213.933 331.84 214.348 331.935 214.7 332.126C215.059 332.309 215.345 332.54 215.558 332.819V331.939H216.823V338H215.558V337.098C215.345 337.384 215.055 337.622 214.689 337.813C214.322 338.003 213.904 338.099 213.435 338.099C212.914 338.099 212.437 337.967 212.005 337.703C211.572 337.431 211.227 337.057 210.971 336.581C210.721 336.097 210.597 335.55 210.597 334.942ZM215.558 334.964C215.558 334.546 215.47 334.183 215.294 333.875C215.125 333.567 214.901 333.332 214.623 333.171C214.344 333.009 214.043 332.929 213.721 332.929C213.398 332.929 213.097 333.009 212.819 333.171C212.54 333.325 212.313 333.556 212.137 333.864C211.968 334.164 211.884 334.524 211.884 334.942C211.884 335.36 211.968 335.726 212.137 336.042C212.313 336.357 212.54 336.599 212.819 336.768C213.105 336.929 213.405 337.01 213.721 337.01C214.043 337.01 214.344 336.929 214.623 336.768C214.901 336.606 215.125 336.372 215.294 336.064C215.47 335.748 215.558 335.382 215.558 334.964ZM219.724 329.86V338H218.47V329.86H219.724ZM231.565 331.84C232.041 331.84 232.467 331.939 232.841 332.137C233.222 332.335 233.519 332.628 233.732 333.017C233.952 333.405 234.062 333.875 234.062 334.425V338H232.819V334.612C232.819 334.069 232.683 333.655 232.412 333.369C232.14 333.075 231.77 332.929 231.301 332.929C230.831 332.929 230.457 333.075 230.179 333.369C229.907 333.655 229.772 334.069 229.772 334.612V338H228.529V334.612C228.529 334.069 228.393 333.655 228.122 333.369C227.85 333.075 227.48 332.929 227.011 332.929C226.541 332.929 226.167 333.075 225.889 333.369C225.617 333.655 225.482 334.069 225.482 334.612V338H224.228V331.939H225.482V332.632C225.687 332.382 225.947 332.188 226.263 332.049C226.578 331.909 226.915 331.84 227.275 331.84C227.759 331.84 228.191 331.942 228.573 332.148C228.954 332.353 229.247 332.65 229.453 333.039C229.636 332.672 229.922 332.382 230.311 332.17C230.699 331.95 231.117 331.84 231.565 331.84ZM241.212 334.821C241.212 335.048 241.198 335.253 241.168 335.437H236.537C236.574 335.921 236.754 336.309 237.076 336.603C237.399 336.896 237.795 337.043 238.264 337.043C238.939 337.043 239.416 336.76 239.694 336.196H241.047C240.864 336.753 240.53 337.211 240.046 337.571C239.57 337.923 238.976 338.099 238.264 338.099C237.685 338.099 237.164 337.97 236.702 337.714C236.248 337.45 235.888 337.083 235.624 336.614C235.368 336.137 235.239 335.587 235.239 334.964C235.239 334.34 235.364 333.794 235.613 333.325C235.87 332.848 236.226 332.481 236.68 332.225C237.142 331.968 237.67 331.84 238.264 331.84C238.836 331.84 239.346 331.964 239.793 332.214C240.241 332.463 240.589 332.815 240.838 333.27C241.088 333.717 241.212 334.234 241.212 334.821ZM239.903 334.425C239.896 333.963 239.731 333.592 239.408 333.314C239.086 333.035 238.686 332.896 238.209 332.896C237.777 332.896 237.406 333.035 237.098 333.314C236.79 333.585 236.607 333.955 236.548 334.425H239.903ZM242.028 334.942C242.028 334.333 242.153 333.794 242.402 333.325C242.659 332.855 243.004 332.492 243.436 332.236C243.876 331.972 244.364 331.84 244.899 331.84C245.295 331.84 245.684 331.928 246.065 332.104C246.454 332.272 246.762 332.5 246.989 332.786V329.86H248.254V338H246.989V337.087C246.784 337.38 246.498 337.622 246.131 337.813C245.772 338.003 245.358 338.099 244.888 338.099C244.36 338.099 243.876 337.967 243.436 337.703C243.004 337.431 242.659 337.057 242.402 336.581C242.153 336.097 242.028 335.55 242.028 334.942ZM246.989 334.964C246.989 334.546 246.901 334.183 246.725 333.875C246.557 333.567 246.333 333.332 246.054 333.171C245.776 333.009 245.475 332.929 245.152 332.929C244.83 332.929 244.529 333.009 244.25 333.171C243.972 333.325 243.744 333.556 243.568 333.864C243.4 334.164 243.315 334.524 243.315 334.942C243.315 335.36 243.4 335.726 243.568 336.042C243.744 336.357 243.972 336.599 244.25 336.768C244.536 336.929 244.837 337.01 245.152 337.01C245.475 337.01 245.776 336.929 246.054 336.768C246.333 336.606 246.557 336.372 246.725 336.064C246.901 335.748 246.989 335.382 246.989 334.964ZM250.54 331.136C250.312 331.136 250.122 331.059 249.968 330.905C249.814 330.751 249.737 330.56 249.737 330.333C249.737 330.105 249.814 329.915 249.968 329.761C250.122 329.607 250.312 329.53 250.54 329.53C250.76 329.53 250.947 329.607 251.101 329.761C251.255 329.915 251.332 330.105 251.332 330.333C251.332 330.56 251.255 330.751 251.101 330.905C250.947 331.059 250.76 331.136 250.54 331.136ZM251.156 331.939V338H249.902V331.939H251.156ZM252.384 334.942C252.384 334.333 252.509 333.794 252.758 333.325C253.015 332.855 253.359 332.492 253.792 332.236C254.232 331.972 254.716 331.84 255.244 331.84C255.721 331.84 256.135 331.935 256.487 332.126C256.846 332.309 257.132 332.54 257.345 332.819V331.939H258.61V338H257.345V337.098C257.132 337.384 256.843 337.622 256.476 337.813C256.109 338.003 255.691 338.099 255.222 338.099C254.701 338.099 254.225 337.967 253.792 337.703C253.359 337.431 253.015 337.057 252.758 336.581C252.509 336.097 252.384 335.55 252.384 334.942ZM257.345 334.964C257.345 334.546 257.257 334.183 257.081 333.875C256.912 333.567 256.689 333.332 256.41 333.171C256.131 333.009 255.831 332.929 255.508 332.929C255.185 332.929 254.885 333.009 254.606 333.171C254.327 333.325 254.1 333.556 253.924 333.864C253.755 334.164 253.671 334.524 253.671 334.942C253.671 335.36 253.755 335.726 253.924 336.042C254.1 336.357 254.327 336.599 254.606 336.768C254.892 336.929 255.193 337.01 255.508 337.01C255.831 337.01 256.131 336.929 256.41 336.768C256.689 336.606 256.912 336.372 257.081 336.064C257.257 335.748 257.345 335.382 257.345 334.964ZM264.368 332.83C264.581 332.551 264.871 332.316 265.237 332.126C265.604 331.935 266.018 331.84 266.48 331.84C267.008 331.84 267.489 331.972 267.921 332.236C268.361 332.492 268.706 332.855 268.955 333.325C269.205 333.794 269.329 334.333 269.329 334.942C269.329 335.55 269.205 336.097 268.955 336.581C268.706 337.057 268.361 337.431 267.921 337.703C267.489 337.967 267.008 338.099 266.48 338.099C266.018 338.099 265.608 338.007 265.248 337.824C264.889 337.633 264.596 337.398 264.368 337.12V340.882H263.114V331.939H264.368V332.83ZM268.053 334.942C268.053 334.524 267.965 334.164 267.789 333.864C267.621 333.556 267.393 333.325 267.107 333.171C266.829 333.009 266.528 332.929 266.205 332.929C265.89 332.929 265.589 333.009 265.303 333.171C265.025 333.332 264.797 333.567 264.621 333.875C264.453 334.183 264.368 334.546 264.368 334.964C264.368 335.382 264.453 335.748 264.621 336.064C264.797 336.372 265.025 336.606 265.303 336.768C265.589 336.929 265.89 337.01 266.205 337.01C266.528 337.01 266.829 336.929 267.107 336.768C267.393 336.599 267.621 336.357 267.789 336.042C267.965 335.726 268.053 335.36 268.053 334.942ZM271.824 332.819C272.007 332.511 272.249 332.272 272.55 332.104C272.858 331.928 273.221 331.84 273.639 331.84V333.138H273.32C272.828 333.138 272.454 333.262 272.198 333.512C271.948 333.761 271.824 334.194 271.824 334.81V338H270.57V331.939H271.824V332.819ZM277.42 338.099C276.848 338.099 276.331 337.97 275.869 337.714C275.407 337.45 275.044 337.083 274.78 336.614C274.516 336.137 274.384 335.587 274.384 334.964C274.384 334.348 274.52 333.801 274.791 333.325C275.063 332.848 275.433 332.481 275.902 332.225C276.372 331.968 276.896 331.84 277.475 331.84C278.055 331.84 278.579 331.968 279.048 332.225C279.518 332.481 279.888 332.848 280.159 333.325C280.431 333.801 280.566 334.348 280.566 334.964C280.566 335.58 280.427 336.126 280.148 336.603C279.87 337.079 279.488 337.45 279.004 337.714C278.528 337.97 278 338.099 277.42 338.099ZM277.42 337.01C277.743 337.01 278.044 336.933 278.322 336.779C278.608 336.625 278.839 336.394 279.015 336.086C279.191 335.778 279.279 335.404 279.279 334.964C279.279 334.524 279.195 334.153 279.026 333.853C278.858 333.545 278.634 333.314 278.355 333.16C278.077 333.006 277.776 332.929 277.453 332.929C277.131 332.929 276.83 333.006 276.551 333.16C276.28 333.314 276.064 333.545 275.902 333.853C275.741 334.153 275.66 334.524 275.66 334.964C275.66 335.616 275.825 336.122 276.155 336.482C276.493 336.834 276.914 337.01 277.42 337.01ZM284.347 332.962H283.225V338H281.96V332.962H281.245V331.939H281.96V331.51C281.96 330.813 282.143 330.307 282.51 329.992C282.884 329.669 283.467 329.508 284.259 329.508V330.553C283.878 330.553 283.61 330.626 283.456 330.773C283.302 330.912 283.225 331.158 283.225 331.51V331.939H284.347V332.962ZM286.096 331.136C285.869 331.136 285.678 331.059 285.524 330.905C285.37 330.751 285.293 330.56 285.293 330.333C285.293 330.105 285.37 329.915 285.524 329.761C285.678 329.607 285.869 329.53 286.096 329.53C286.316 329.53 286.503 329.607 286.657 329.761C286.811 329.915 286.888 330.105 286.888 330.333C286.888 330.56 286.811 330.751 286.657 330.905C286.503 331.059 286.316 331.136 286.096 331.136ZM286.712 331.939V338H285.458V331.939H286.712ZM289.613 329.86V338H288.359V329.86H289.613ZM296.814 334.821C296.814 335.048 296.799 335.253 296.77 335.437H292.139C292.176 335.921 292.355 336.309 292.678 336.603C293.001 336.896 293.397 337.043 293.866 337.043C294.541 337.043 295.017 336.76 295.296 336.196H296.649C296.466 336.753 296.132 337.211 295.648 337.571C295.171 337.923 294.577 338.099 293.866 338.099C293.287 338.099 292.766 337.97 292.304 337.714C291.849 337.45 291.49 337.083 291.226 336.614C290.969 336.137 290.841 335.587 290.841 334.964C290.841 334.34 290.966 333.794 291.215 333.325C291.472 332.848 291.827 332.481 292.282 332.225C292.744 331.968 293.272 331.84 293.866 331.84C294.438 331.84 294.948 331.964 295.395 332.214C295.842 332.463 296.191 332.815 296.44 333.27C296.689 333.717 296.814 334.234 296.814 334.821ZM295.505 334.425C295.498 333.963 295.333 333.592 295.01 333.314C294.687 333.035 294.288 332.896 293.811 332.896C293.378 332.896 293.008 333.035 292.7 333.314C292.392 333.585 292.209 333.955 292.15 334.425H295.505Z" fill="#595959"/>
<path d="M266.8 257.634H459V288.575H266.8V257.634Z" fill="white" stroke="#BBBBBB" stroke-width="0.799644"/>
<path d="M266.07 243.25C266.07 242.502 266.242 241.831 266.587 241.237C266.939 240.643 267.412 240.181 268.006 239.851C268.607 239.514 269.264 239.345 269.975 239.345C270.789 239.345 271.511 239.547 272.142 239.95C272.78 240.346 273.242 240.911 273.528 241.644H272.021C271.823 241.241 271.548 240.94 271.196 240.742C270.844 240.544 270.437 240.445 269.975 240.445C269.469 240.445 269.018 240.559 268.622 240.786C268.226 241.013 267.914 241.34 267.687 241.765C267.467 242.19 267.357 242.685 267.357 243.25C267.357 243.815 267.467 244.31 267.687 244.735C267.914 245.16 268.226 245.49 268.622 245.725C269.018 245.952 269.469 246.066 269.975 246.066C270.437 246.066 270.844 245.967 271.196 245.769C271.548 245.571 271.823 245.27 272.021 244.867H273.528C273.242 245.6 272.78 246.165 272.142 246.561C271.511 246.957 270.789 247.155 269.975 247.155C269.256 247.155 268.6 246.99 268.006 246.66C267.412 246.323 266.939 245.857 266.587 245.263C266.242 244.669 266.07 243.998 266.07 243.25ZM277.625 247.188C277.053 247.188 276.536 247.06 276.074 246.803C275.612 246.539 275.249 246.172 274.985 245.703C274.721 245.226 274.589 244.676 274.589 244.053C274.589 243.437 274.724 242.891 274.996 242.414C275.267 241.937 275.637 241.571 276.107 241.314C276.576 241.057 277.1 240.929 277.68 240.929C278.259 240.929 278.783 241.057 279.253 241.314C279.722 241.571 280.092 241.937 280.364 242.414C280.635 242.891 280.771 243.437 280.771 244.053C280.771 244.669 280.631 245.215 280.353 245.692C280.074 246.169 279.693 246.539 279.209 246.803C278.732 247.06 278.204 247.188 277.625 247.188ZM277.625 246.099C277.947 246.099 278.248 246.022 278.527 245.868C278.813 245.714 279.044 245.483 279.22 245.175C279.396 244.867 279.484 244.493 279.484 244.053C279.484 243.613 279.399 243.243 279.231 242.942C279.062 242.634 278.838 242.403 278.56 242.249C278.281 242.095 277.98 242.018 277.658 242.018C277.335 242.018 277.034 242.095 276.756 242.249C276.484 242.403 276.268 242.634 276.107 242.942C275.945 243.243 275.865 243.613 275.865 244.053C275.865 244.706 276.03 245.212 276.36 245.571C276.697 245.923 277.119 246.099 277.625 246.099ZM285.068 240.929C285.545 240.929 285.97 241.028 286.344 241.226C286.726 241.424 287.023 241.717 287.235 242.106C287.448 242.495 287.554 242.964 287.554 243.514V247.089H286.311V243.701C286.311 243.158 286.176 242.744 285.904 242.458C285.633 242.165 285.263 242.018 284.793 242.018C284.324 242.018 283.95 242.165 283.671 242.458C283.4 242.744 283.264 243.158 283.264 243.701V247.089H282.01V241.028H283.264V241.721C283.47 241.472 283.73 241.277 284.045 241.138C284.368 240.999 284.709 240.929 285.068 240.929ZM291.695 242.051H290.573V247.089H289.308V242.051H288.593V241.028H289.308V240.599C289.308 239.902 289.491 239.396 289.858 239.081C290.232 238.758 290.815 238.597 291.607 238.597V239.642C291.226 239.642 290.958 239.715 290.804 239.862C290.65 240.001 290.573 240.247 290.573 240.599V241.028H291.695V242.051ZM293.444 240.225C293.217 240.225 293.026 240.148 292.872 239.994C292.718 239.84 292.641 239.649 292.641 239.422C292.641 239.195 292.718 239.004 292.872 238.85C293.026 238.696 293.217 238.619 293.444 238.619C293.664 238.619 293.851 238.696 294.005 238.85C294.159 239.004 294.236 239.195 294.236 239.422C294.236 239.649 294.159 239.84 294.005 239.994C293.851 240.148 293.664 240.225 293.444 240.225ZM294.06 241.028V247.089H292.806V241.028H294.06ZM296.961 241.908C297.144 241.6 297.386 241.362 297.687 241.193C297.995 241.017 298.358 240.929 298.776 240.929V242.227H298.457C297.965 242.227 297.591 242.352 297.335 242.601C297.085 242.85 296.961 243.283 296.961 243.899V247.089H295.707V241.028H296.961V241.908ZM307.265 240.929C307.742 240.929 308.167 241.028 308.541 241.226C308.923 241.424 309.22 241.717 309.432 242.106C309.652 242.495 309.762 242.964 309.762 243.514V247.089H308.519V243.701C308.519 243.158 308.384 242.744 308.112 242.458C307.841 242.165 307.471 242.018 307.001 242.018C306.532 242.018 306.158 242.165 305.879 242.458C305.608 242.744 305.472 243.158 305.472 243.701V247.089H304.229V243.701C304.229 243.158 304.094 242.744 303.822 242.458C303.551 242.165 303.181 242.018 302.711 242.018C302.242 242.018 301.868 242.165 301.589 242.458C301.318 242.744 301.182 243.158 301.182 243.701V247.089H299.928V241.028H301.182V241.721C301.388 241.472 301.648 241.277 301.963 241.138C302.279 240.999 302.616 240.929 302.975 240.929C303.459 240.929 303.892 241.032 304.273 241.237C304.655 241.442 304.948 241.739 305.153 242.128C305.337 241.761 305.623 241.472 306.011 241.259C306.4 241.039 306.818 240.929 307.265 240.929ZM319.562 241.721C319.562 242.11 319.47 242.476 319.287 242.821C319.103 243.166 318.81 243.448 318.407 243.668C318.003 243.881 317.486 243.987 316.856 243.987H315.47V247.089H314.216V239.444H316.856C317.442 239.444 317.937 239.547 318.341 239.752C318.751 239.95 319.056 240.221 319.254 240.566C319.459 240.911 319.562 241.296 319.562 241.721ZM316.856 242.964C317.332 242.964 317.688 242.858 317.923 242.645C318.157 242.425 318.275 242.117 318.275 241.721C318.275 240.885 317.802 240.467 316.856 240.467H315.47V242.964H316.856ZM320.339 244.031C320.339 243.422 320.464 242.883 320.713 242.414C320.97 241.945 321.315 241.582 321.747 241.325C322.187 241.061 322.671 240.929 323.199 240.929C323.676 240.929 324.09 241.024 324.442 241.215C324.802 241.398 325.088 241.629 325.3 241.908V241.028H326.565V247.089H325.3V246.187C325.088 246.473 324.798 246.711 324.431 246.902C324.065 247.093 323.647 247.188 323.177 247.188C322.657 247.188 322.18 247.056 321.747 246.792C321.315 246.521 320.97 246.147 320.713 245.67C320.464 245.186 320.339 244.64 320.339 244.031ZM325.3 244.053C325.3 243.635 325.212 243.272 325.036 242.964C324.868 242.656 324.644 242.421 324.365 242.26C324.087 242.099 323.786 242.018 323.463 242.018C323.141 242.018 322.84 242.099 322.561 242.26C322.283 242.414 322.055 242.645 321.879 242.953C321.711 243.254 321.626 243.613 321.626 244.031C321.626 244.449 321.711 244.816 321.879 245.131C322.055 245.446 322.283 245.688 322.561 245.857C322.847 246.018 323.148 246.099 323.463 246.099C323.786 246.099 324.087 246.018 324.365 245.857C324.644 245.696 324.868 245.461 325.036 245.153C325.212 244.838 325.3 244.471 325.3 244.053ZM330.413 247.188C329.936 247.188 329.507 247.104 329.126 246.935C328.752 246.759 328.455 246.524 328.235 246.231C328.015 245.93 327.897 245.597 327.883 245.23H329.181C329.203 245.487 329.324 245.703 329.544 245.879C329.771 246.048 330.053 246.132 330.391 246.132C330.743 246.132 331.014 246.066 331.205 245.934C331.403 245.795 331.502 245.619 331.502 245.406C331.502 245.179 331.392 245.01 331.172 244.9C330.959 244.79 330.618 244.669 330.149 244.537C329.694 244.412 329.324 244.291 329.038 244.174C328.752 244.057 328.502 243.877 328.29 243.635C328.084 243.393 327.982 243.074 327.982 242.678C327.982 242.355 328.077 242.062 328.268 241.798C328.458 241.527 328.73 241.314 329.082 241.16C329.441 241.006 329.852 240.929 330.314 240.929C331.003 240.929 331.557 241.105 331.975 241.457C332.4 241.802 332.627 242.275 332.657 242.876H331.403C331.381 242.605 331.271 242.388 331.073 242.227C330.875 242.066 330.607 241.985 330.27 241.985C329.94 241.985 329.687 242.047 329.511 242.172C329.335 242.297 329.247 242.462 329.247 242.667C329.247 242.828 329.305 242.964 329.423 243.074C329.54 243.184 329.683 243.272 329.852 243.338C330.02 243.397 330.27 243.474 330.6 243.569C331.04 243.686 331.399 243.807 331.678 243.932C331.964 244.049 332.209 244.225 332.415 244.46C332.62 244.695 332.726 245.006 332.734 245.395C332.734 245.74 332.638 246.048 332.448 246.319C332.257 246.59 331.986 246.803 331.634 246.957C331.289 247.111 330.882 247.188 330.413 247.188ZM336.289 247.188C335.812 247.188 335.383 247.104 335.002 246.935C334.628 246.759 334.331 246.524 334.111 246.231C333.891 245.93 333.773 245.597 333.759 245.23H335.057C335.079 245.487 335.2 245.703 335.42 245.879C335.647 246.048 335.929 246.132 336.267 246.132C336.619 246.132 336.89 246.066 337.081 245.934C337.279 245.795 337.378 245.619 337.378 245.406C337.378 245.179 337.268 245.01 337.048 244.9C336.835 244.79 336.494 244.669 336.025 244.537C335.57 244.412 335.2 244.291 334.914 244.174C334.628 244.057 334.378 243.877 334.166 243.635C333.96 243.393 333.858 243.074 333.858 242.678C333.858 242.355 333.953 242.062 334.144 241.798C334.334 241.527 334.606 241.314 334.958 241.16C335.317 241.006 335.728 240.929 336.19 240.929C336.879 240.929 337.433 241.105 337.851 241.457C338.276 241.802 338.503 242.275 338.533 242.876H337.279C337.257 242.605 337.147 242.388 336.949 242.227C336.751 242.066 336.483 241.985 336.146 241.985C335.816 241.985 335.563 242.047 335.387 242.172C335.211 242.297 335.123 242.462 335.123 242.667C335.123 242.828 335.181 242.964 335.299 243.074C335.416 243.184 335.559 243.272 335.728 243.338C335.896 243.397 336.146 243.474 336.476 243.569C336.916 243.686 337.275 243.807 337.554 243.932C337.84 244.049 338.085 244.225 338.291 244.46C338.496 244.695 338.602 245.006 338.61 245.395C338.61 245.74 338.514 246.048 338.324 246.319C338.133 246.59 337.862 246.803 337.51 246.957C337.165 247.111 336.758 247.188 336.289 247.188ZM348.105 241.028L346.224 247.089H344.904L343.683 242.612L342.462 247.089H341.142L339.25 241.028H340.526L341.791 245.901L343.078 241.028H344.387L345.619 245.879L346.873 241.028H348.105ZM351.671 247.188C351.099 247.188 350.582 247.06 350.12 246.803C349.658 246.539 349.295 246.172 349.031 245.703C348.767 245.226 348.635 244.676 348.635 244.053C348.635 243.437 348.77 242.891 349.042 242.414C349.313 241.937 349.683 241.571 350.153 241.314C350.622 241.057 351.146 240.929 351.726 240.929C352.305 240.929 352.829 241.057 353.299 241.314C353.768 241.571 354.138 241.937 354.41 242.414C354.681 242.891 354.817 243.437 354.817 244.053C354.817 244.669 354.677 245.215 354.399 245.692C354.12 246.169 353.739 246.539 353.255 246.803C352.778 247.06 352.25 247.188 351.671 247.188ZM351.671 246.099C351.993 246.099 352.294 246.022 352.573 245.868C352.859 245.714 353.09 245.483 353.266 245.175C353.442 244.867 353.53 244.493 353.53 244.053C353.53 243.613 353.445 243.243 353.277 242.942C353.108 242.634 352.884 242.403 352.606 242.249C352.327 242.095 352.026 242.018 351.704 242.018C351.381 242.018 351.08 242.095 350.802 242.249C350.53 242.403 350.314 242.634 350.153 242.942C349.991 243.243 349.911 243.613 349.911 244.053C349.911 244.706 350.076 245.212 350.406 245.571C350.743 245.923 351.165 246.099 351.671 246.099ZM357.31 241.908C357.494 241.6 357.736 241.362 358.036 241.193C358.344 241.017 358.707 240.929 359.125 240.929V242.227H358.806C358.315 242.227 357.941 242.352 357.684 242.601C357.435 242.85 357.31 243.283 357.31 243.899V247.089H356.056V241.028H357.31V241.908ZM359.86 244.031C359.86 243.422 359.985 242.883 360.234 242.414C360.491 241.945 360.835 241.582 361.268 241.325C361.708 241.061 362.196 240.929 362.731 240.929C363.127 240.929 363.516 241.017 363.897 241.193C364.286 241.362 364.594 241.589 364.821 241.875V238.949H366.086V247.089H364.821V246.176C364.616 246.469 364.33 246.711 363.963 246.902C363.604 247.093 363.189 247.188 362.72 247.188C362.192 247.188 361.708 247.056 361.268 246.792C360.835 246.521 360.491 246.147 360.234 245.67C359.985 245.186 359.86 244.64 359.86 244.031ZM364.821 244.053C364.821 243.635 364.733 243.272 364.557 242.964C364.388 242.656 364.165 242.421 363.886 242.26C363.607 242.099 363.307 242.018 362.984 242.018C362.661 242.018 362.361 242.099 362.082 242.26C361.803 242.414 361.576 242.645 361.4 242.953C361.231 243.254 361.147 243.613 361.147 244.031C361.147 244.449 361.231 244.816 361.4 245.131C361.576 245.446 361.803 245.688 362.082 245.857C362.368 246.018 362.669 246.099 362.984 246.099C363.307 246.099 363.607 246.018 363.886 245.857C364.165 245.696 364.388 245.461 364.557 245.153C364.733 244.838 364.821 244.471 364.821 244.053ZM371.22 239.62L371.715 240.5L370.208 241.061L371.715 241.622L371.209 242.524L369.955 241.534L370.186 243.129H369.174L369.383 241.534L368.129 242.546L367.601 241.611L369.097 241.05L367.601 240.511L368.107 239.609L369.394 240.599L369.174 238.993H370.197L369.955 240.599L371.22 239.62Z" fill="#595959"/>
<rect x="42.4002" y="60.3996" width="192.2" height="31.2004" fill="white" stroke="#BBBBBB" stroke-width="0.799644"/>
<rect x="267.401" y="60.3996" width="192.2" height="31.2004" fill="white" stroke="#BBBBBB" stroke-width="0.799644"/>
<defs>
<filter id="filter0_d" x="0.000366211" y="-0.000244141" width="514" height="523" filterUnits="userSpaceOnUse" color-interpolation-filters="sRGB">
<feFlood flood-opacity="0" result="BackgroundImageFix"/>
<feColorMatrix in="SourceAlpha" type="matrix" values="0 0 0 0 0 0 0 0 0 0 0 0 0 0 0 0 0 0 127 0"/>
<feOffset dx="3" dy="4"/>
<feGaussianBlur stdDeviation="5"/>
<feColorMatrix type="matrix" values="0 0 0 0 0 0 0 0 0 0 0 0 0 0 0 0 0 0 0.25 0"/>
<feBlend mode="normal" in2="BackgroundImageFix" result="effect1_dropShadow"/>
<feBlend mode="normal" in="SourceGraphic" in2="effect1_dropShadow" result="shape"/>
</filter>
</defs>
</svg>
