<svg width="199" height="32" viewBox="0 0 199 32" fill="none" xmlns="http://www.w3.org/2000/svg">
<path d="M0.5 3C0.5 1.61929 1.61929 0.5 3 0.5H196C197.381 0.5 198.5 1.61929 198.5 3V29C198.5 30.3807 197.381 31.5 196 31.5H3C1.61929 31.5 0.5 30.3807 0.5 29V3Z" fill="white" stroke="#0172D0"/>
<path d="M37.407 15.161C37.407 14.413 37.5793 13.742 37.924 13.148C38.276 12.554 38.749 12.092 39.343 11.762C39.9443 11.4247 40.6007 11.256 41.312 11.256C42.126 11.256 42.8483 11.4577 43.479 11.861C44.117 12.257 44.579 12.8217 44.865 13.555H43.358C43.16 13.1517 42.885 12.851 42.533 12.653C42.181 12.455 41.774 12.356 41.312 12.356C40.806 12.356 40.355 12.4697 39.959 12.697C39.563 12.9243 39.2513 13.2507 39.024 13.676C38.804 14.1013 38.694 14.5963 38.694 15.161C38.694 15.7257 38.804 16.2207 39.024 16.646C39.2513 17.0713 39.563 17.4013 39.959 17.636C40.355 17.8633 40.806 17.977 41.312 17.977C41.774 17.977 42.181 17.878 42.533 17.68C42.885 17.482 43.16 17.1813 43.358 16.778H44.865C44.579 17.5113 44.117 18.076 43.479 18.472C42.8483 18.868 42.126 19.066 41.312 19.066C40.5933 19.066 39.937 18.901 39.343 18.571C38.749 18.2337 38.276 17.768 37.924 17.174C37.5793 16.58 37.407 15.909 37.407 15.161ZM48.9618 19.099C48.3898 19.099 47.8728 18.9707 47.4108 18.714C46.9488 18.45 46.5858 18.0833 46.3218 17.614C46.0578 17.1373 45.9258 16.5873 45.9258 15.964C45.9258 15.348 46.0615 14.8017 46.3328 14.325C46.6041 13.8483 46.9745 13.4817 47.4438 13.225C47.9131 12.9683 48.4375 12.84 49.0168 12.84C49.5961 12.84 50.1205 12.9683 50.5898 13.225C51.0591 13.4817 51.4295 13.8483 51.7008 14.325C51.9721 14.8017 52.1078 15.348 52.1078 15.964C52.1078 16.58 51.9685 17.1263 51.6898 17.603C51.4111 18.0797 51.0298 18.45 50.5458 18.714C50.0691 18.9707 49.5411 19.099 48.9618 19.099ZM48.9618 18.01C49.2845 18.01 49.5851 17.933 49.8638 17.779C50.1498 17.625 50.3808 17.394 50.5568 17.086C50.7328 16.778 50.8208 16.404 50.8208 15.964C50.8208 15.524 50.7365 15.1537 50.5678 14.853C50.3991 14.545 50.1755 14.314 49.8968 14.16C49.6181 14.006 49.3175 13.929 48.9948 13.929C48.6721 13.929 48.3715 14.006 48.0928 14.16C47.8215 14.314 47.6051 14.545 47.4438 14.853C47.2825 15.1537 47.2018 15.524 47.2018 15.964C47.2018 16.6167 47.3668 17.1227 47.6968 17.482C48.0341 17.834 48.4558 18.01 48.9618 18.01ZM56.4055 12.84C56.8821 12.84 57.3075 12.939 57.6815 13.137C58.0628 13.335 58.3598 13.6283 58.5725 14.017C58.7851 14.4057 58.8915 14.875 58.8915 15.425V19H57.6485V15.612C57.6485 15.0693 57.5128 14.655 57.2415 14.369C56.9701 14.0757 56.5998 13.929 56.1305 13.929C55.6611 13.929 55.2871 14.0757 55.0085 14.369C54.7371 14.655 54.6015 15.0693 54.6015 15.612V19H53.3475V12.939H54.6015V13.632C54.8068 13.3827 55.0671 13.1883 55.3825 13.049C55.7051 12.9097 56.0461 12.84 56.4055 12.84ZM63.549 12.84C64.0257 12.84 64.451 12.939 64.825 13.137C65.2063 13.335 65.5033 13.6283 65.716 14.017C65.9287 14.4057 66.035 14.875 66.035 15.425V19H64.792V15.612C64.792 15.0693 64.6563 14.655 64.385 14.369C64.1137 14.0757 63.7433 13.929 63.274 13.929C62.8047 13.929 62.4307 14.0757 62.152 14.369C61.8807 14.655 61.745 15.0693 61.745 15.612V19H60.491V12.939H61.745V13.632C61.9503 13.3827 62.2107 13.1883 62.526 13.049C62.8487 12.9097 63.1897 12.84 63.549 12.84ZM73.1896 15.821C73.1896 16.0483 73.1749 16.2537 73.1456 16.437H68.5146C68.5512 16.921 68.7309 17.3097 69.0536 17.603C69.3762 17.8963 69.7722 18.043 70.2416 18.043C70.9162 18.043 71.3929 17.7607 71.6716 17.196H73.0246C72.8412 17.7533 72.5076 18.2117 72.0236 18.571C71.5469 18.923 70.9529 19.099 70.2416 19.099C69.6622 19.099 69.1416 18.9707 68.6796 18.714C68.2249 18.45 67.8656 18.0833 67.6016 17.614C67.3449 17.1373 67.2166 16.5873 67.2166 15.964C67.2166 15.3407 67.3412 14.7943 67.5906 14.325C67.8472 13.8483 68.2029 13.4817 68.6576 13.225C69.1196 12.9683 69.6476 12.84 70.2416 12.84C70.8136 12.84 71.3232 12.9647 71.7706 13.214C72.2179 13.4633 72.5662 13.8153 72.8156 14.27C73.0649 14.7173 73.1896 15.2343 73.1896 15.821ZM71.8806 15.425C71.8732 14.963 71.7082 14.5927 71.3856 14.314C71.0629 14.0353 70.6632 13.896 70.1866 13.896C69.7539 13.896 69.3836 14.0353 69.0756 14.314C68.7676 14.5853 68.5842 14.9557 68.5256 15.425H71.8806ZM74.0056 15.964C74.0056 15.3407 74.1303 14.7943 74.3796 14.325C74.6363 13.8483 74.9883 13.4817 75.4356 13.225C75.883 12.9683 76.3963 12.84 76.9756 12.84C77.709 12.84 78.314 13.016 78.7906 13.368C79.2746 13.7127 79.601 14.2077 79.7696 14.853H78.4166C78.3066 14.5523 78.1306 14.3177 77.8886 14.149C77.6466 13.9803 77.3423 13.896 76.9756 13.896C76.4623 13.896 76.0516 14.0793 75.7436 14.446C75.443 14.8053 75.2926 15.3113 75.2926 15.964C75.2926 16.6167 75.443 17.1263 75.7436 17.493C76.0516 17.8597 76.4623 18.043 76.9756 18.043C77.7016 18.043 78.182 17.724 78.4166 17.086H79.7696C79.5936 17.702 79.2636 18.1933 78.7796 18.56C78.2956 18.9193 77.6943 19.099 76.9756 19.099C76.3963 19.099 75.883 18.9707 75.4356 18.714C74.9883 18.45 74.6363 18.0833 74.3796 17.614C74.1303 17.1373 74.0056 16.5873 74.0056 15.964ZM82.4823 13.962V17.317C82.4823 17.5443 82.5337 17.7093 82.6363 17.812C82.7463 17.9073 82.9297 17.955 83.1863 17.955H83.9563V19H82.9663C82.4017 19 81.969 18.868 81.6683 18.604C81.3677 18.34 81.2173 17.911 81.2173 17.317V13.962H80.5023V12.939H81.2173V11.432H82.4823V12.939H83.9563V13.962H82.4823ZM96.1095 12.939L94.2285 19H92.9085L91.6875 14.523L90.4665 19H89.1465L87.2545 12.939H88.5305L89.7955 17.812L91.0825 12.939H92.3915L93.6235 17.79L94.8775 12.939H96.1095ZM97.6847 12.136C97.4573 12.136 97.2667 12.059 97.1127 11.905C96.9587 11.751 96.8817 11.5603 96.8817 11.333C96.8817 11.1057 96.9587 10.915 97.1127 10.761C97.2667 10.607 97.4573 10.53 97.6847 10.53C97.9047 10.53 98.0917 10.607 98.2457 10.761C98.3997 10.915 98.4767 11.1057 98.4767 11.333C98.4767 11.5603 98.3997 11.751 98.2457 11.905C98.0917 12.059 97.9047 12.136 97.6847 12.136ZM98.3007 12.939V19H97.0467V12.939H98.3007ZM101.41 13.962V17.317C101.41 17.5443 101.461 17.7093 101.564 17.812C101.674 17.9073 101.857 17.955 102.114 17.955H102.884V19H101.894C101.329 19 100.897 18.868 100.596 18.604C100.295 18.34 100.145 17.911 100.145 17.317V13.962H99.4301V12.939H100.145V11.432H101.41V12.939H102.884V13.962H101.41ZM107.175 12.84C107.637 12.84 108.048 12.939 108.407 13.137C108.774 13.335 109.06 13.6283 109.265 14.017C109.478 14.4057 109.584 14.875 109.584 15.425V19H108.341V15.612C108.341 15.0693 108.205 14.655 107.934 14.369C107.663 14.0757 107.292 13.929 106.823 13.929C106.354 13.929 105.98 14.0757 105.701 14.369C105.43 14.655 105.294 15.0693 105.294 15.612V19H104.04V10.86H105.294V13.643C105.507 13.3863 105.774 13.1883 106.097 13.049C106.427 12.9097 106.786 12.84 107.175 12.84ZM119.706 11.355L117.176 16.228V19H115.922V16.228L113.381 11.355H114.778L116.549 15.106L118.32 11.355H119.706ZM123.33 19.099C122.758 19.099 122.241 18.9707 121.779 18.714C121.317 18.45 120.954 18.0833 120.69 17.614C120.426 17.1373 120.294 16.5873 120.294 15.964C120.294 15.348 120.43 14.8017 120.701 14.325C120.972 13.8483 121.343 13.4817 121.812 13.225C122.281 12.9683 122.806 12.84 123.385 12.84C123.964 12.84 124.489 12.9683 124.958 13.225C125.427 13.4817 125.798 13.8483 126.069 14.325C126.34 14.8017 126.476 15.348 126.476 15.964C126.476 16.58 126.337 17.1263 126.058 17.603C125.779 18.0797 125.398 18.45 124.914 18.714C124.437 18.9707 123.909 19.099 123.33 19.099ZM123.33 18.01C123.653 18.01 123.953 17.933 124.232 17.779C124.518 17.625 124.749 17.394 124.925 17.086C125.101 16.778 125.189 16.404 125.189 15.964C125.189 15.524 125.105 15.1537 124.936 14.853C124.767 14.545 124.544 14.314 124.265 14.16C123.986 14.006 123.686 13.929 123.363 13.929C123.04 13.929 122.74 14.006 122.461 14.16C122.19 14.314 121.973 14.545 121.812 14.853C121.651 15.1537 121.57 15.524 121.57 15.964C121.57 16.6167 121.735 17.1227 122.065 17.482C122.402 17.834 122.824 18.01 123.33 18.01ZM133.205 12.939V19H131.951V18.285C131.753 18.5343 131.492 18.7323 131.17 18.879C130.854 19.0183 130.517 19.088 130.158 19.088C129.681 19.088 129.252 18.989 128.871 18.791C128.497 18.593 128.2 18.2997 127.98 17.911C127.767 17.5223 127.661 17.053 127.661 16.503V12.939H128.904V16.316C128.904 16.8587 129.039 17.2767 129.311 17.57C129.582 17.856 129.952 17.999 130.422 17.999C130.891 17.999 131.261 17.856 131.533 17.57C131.811 17.2767 131.951 16.8587 131.951 16.316V12.939H133.205ZM139.798 11.355V12.378H137.763V19H136.509V12.378H134.463V11.355H139.798ZM146.557 12.939V19H145.303V18.285C145.105 18.5343 144.845 18.7323 144.522 18.879C144.207 19.0183 143.869 19.088 143.51 19.088C143.033 19.088 142.604 18.989 142.223 18.791C141.849 18.593 141.552 18.2997 141.332 17.911C141.119 17.5223 141.013 17.053 141.013 16.503V12.939H142.256V16.316C142.256 16.8587 142.392 17.2767 142.663 17.57C142.934 17.856 143.305 17.999 143.774 17.999C144.243 17.999 144.614 17.856 144.885 17.57C145.164 17.2767 145.303 16.8587 145.303 16.316V12.939H146.557ZM149.466 13.841C149.678 13.5477 149.968 13.3093 150.335 13.126C150.709 12.9353 151.123 12.84 151.578 12.84C152.113 12.84 152.597 12.9683 153.03 13.225C153.462 13.4817 153.803 13.8483 154.053 14.325C154.302 14.7943 154.427 15.3333 154.427 15.942C154.427 16.5507 154.302 17.097 154.053 17.581C153.803 18.0577 153.459 18.4317 153.019 18.703C152.586 18.967 152.106 19.099 151.578 19.099C151.108 19.099 150.69 19.0073 150.324 18.824C149.964 18.6407 149.678 18.406 149.466 18.12V19H148.212V10.86H149.466V13.841ZM153.151 15.942C153.151 15.524 153.063 15.1647 152.887 14.864C152.718 14.556 152.491 14.325 152.205 14.171C151.926 14.0097 151.625 13.929 151.303 13.929C150.987 13.929 150.687 14.0097 150.401 14.171C150.122 14.3323 149.895 14.567 149.719 14.875C149.55 15.183 149.466 15.546 149.466 15.964C149.466 16.382 149.55 16.7487 149.719 17.064C149.895 17.372 150.122 17.6067 150.401 17.768C150.687 17.9293 150.987 18.01 151.303 18.01C151.625 18.01 151.926 17.9293 152.205 17.768C152.491 17.5993 152.718 17.3573 152.887 17.042C153.063 16.7267 153.151 16.36 153.151 15.942ZM161.222 15.821C161.222 16.0483 161.207 16.2537 161.178 16.437H156.547C156.583 16.921 156.763 17.3097 157.086 17.603C157.408 17.8963 157.804 18.043 158.274 18.043C158.948 18.043 159.425 17.7607 159.704 17.196H161.057C160.873 17.7533 160.54 18.2117 160.056 18.571C159.579 18.923 158.985 19.099 158.274 19.099C157.694 19.099 157.174 18.9707 156.712 18.714C156.257 18.45 155.898 18.0833 155.634 17.614C155.377 17.1373 155.249 16.5873 155.249 15.964C155.249 15.3407 155.373 14.7943 155.623 14.325C155.879 13.8483 156.235 13.4817 156.69 13.225C157.152 12.9683 157.68 12.84 158.274 12.84C158.846 12.84 159.355 12.9647 159.803 13.214C160.25 13.4633 160.598 13.8153 160.848 14.27C161.097 14.7173 161.222 15.2343 161.222 15.821ZM159.913 15.425C159.905 14.963 159.74 14.5927 159.418 14.314C159.095 14.0353 158.695 13.896 158.219 13.896C157.786 13.896 157.416 14.0353 157.108 14.314C156.8 14.5853 156.616 14.9557 156.558 15.425H159.913Z" fill="#0172D0"/>
<path d="M28.4093 10.2933C28.1696 9.39058 27.4633 8.67966 26.5664 8.4384C24.9408 8 18.4224 8 18.4224 8C18.4224 8 11.9041 8 10.2785 8.4384C9.38165 8.6797 8.67531 9.39058 8.43557 10.2933C8 11.9294 8 15.3431 8 15.3431C8 15.3431 8 18.7568 8.43557 20.3929C8.67531 21.2956 9.38165 21.9769 10.2785 22.2182C11.9041 22.6566 18.4224 22.6566 18.4224 22.6566C18.4224 22.6566 24.9408 22.6566 26.5664 22.2182C27.4633 21.9769 28.1696 21.2956 28.4093 20.3929C28.8449 18.7568 28.8449 15.3431 28.8449 15.3431C28.8449 15.3431 28.8449 11.9294 28.4093 10.2933ZM16.2906 18.4425V12.2437L21.7386 15.3432L16.2906 18.4425Z" fill="#D00000"/>
</svg>
