<svg width="14" height="176" viewBox="0 0 14 176" fill="none" xmlns="http://www.w3.org/2000/svg">
<path d="M12.9996 6.45125V7.00323C12.9989 8.29704 12.5799 9.55595 11.8052 10.5922C11.0306 11.6285 9.94167 12.3865 8.70095 12.7534C7.46024 13.1202 6.13418 13.0762 4.92055 12.6278C3.70692 12.1794 2.67074 11.3507 1.96654 10.2654C1.26235 9.17997 0.927877 7.89604 1.01301 6.60503C1.09813 5.31403 1.5983 4.08512 2.43892 3.10161C3.27953 2.11809 4.41555 1.43265 5.67755 1.14752C6.93955 0.862385 8.25991 0.992837 9.44172 1.51942" stroke="#213A8F" stroke-width="2" stroke-linecap="round" stroke-linejoin="round"/>
<path d="M13.0004 2.20166L7.00062 8.20746L5.20068 6.40752" stroke="#213A8F" stroke-width="2" stroke-linecap="round" stroke-linejoin="round"/>
<path d="M12.9996 125.451V126.003C12.9989 127.297 12.5799 128.556 11.8052 129.592C11.0306 130.628 9.94167 131.387 8.70095 131.753C7.46024 132.12 6.13418 132.076 4.92055 131.628C3.70692 131.179 2.67074 130.351 1.96654 129.265C1.26235 128.18 0.927877 126.896 1.01301 125.605C1.09813 124.314 1.5983 123.085 2.43892 122.102C3.27953 121.118 4.41555 120.433 5.67755 120.148C6.93955 119.862 8.25991 119.993 9.44172 120.519" stroke="#213A8F" stroke-width="2" stroke-linecap="round" stroke-linejoin="round"/>
<path d="M13.0004 121.202L7.00062 127.208L5.20068 125.408" stroke="#213A8F" stroke-width="2" stroke-linecap="round" stroke-linejoin="round"/>
<path d="M12.9996 168.451V169.003C12.9989 170.297 12.5799 171.556 11.8052 172.592C11.0306 173.628 9.94167 174.387 8.70095 174.753C7.46024 175.12 6.13418 175.076 4.92055 174.628C3.70692 174.179 2.67074 173.351 1.96654 172.265C1.26235 171.18 0.927877 169.896 1.01301 168.605C1.09813 167.314 1.5983 166.085 2.43892 165.102C3.27953 164.118 4.41555 163.433 5.67755 163.148C6.93955 162.862 8.25991 162.993 9.44172 163.519" stroke="#213A8F" stroke-width="2" stroke-linecap="round" stroke-linejoin="round"/>
<path d="M13.0004 164.202L7.00062 170.208L5.20068 168.408" stroke="#213A8F" stroke-width="2" stroke-linecap="round" stroke-linejoin="round"/>
<path d="M12.9996 66.4512V67.0032C12.9989 68.297 12.5799 69.5559 11.8052 70.5922C11.0306 71.6285 9.94167 72.3865 8.70095 72.7534C7.46024 73.1202 6.13418 73.0762 4.92055 72.6278C3.70692 72.1794 2.67074 71.3507 1.96654 70.2654C1.26235 69.18 0.927877 67.896 1.01301 66.605C1.09813 65.314 1.5983 64.0851 2.43892 63.1016C3.27953 62.1181 4.41555 61.4326 5.67755 61.1475C6.93955 60.8624 8.25991 60.9928 9.44172 61.5194" stroke="#213A8F" stroke-width="2" stroke-linecap="round" stroke-linejoin="round"/>
<path d="M13.0004 62.2017L7.00062 68.2075L5.20068 66.4075" stroke="#213A8F" stroke-width="2" stroke-linecap="round" stroke-linejoin="round"/>
</svg>
