<svg width="199" height="32" viewBox="0 0 199 32" fill="none" xmlns="http://www.w3.org/2000/svg">
<path d="M0.5 3C0.5 1.61929 1.61929 0.5 3 0.5H196C197.381 0.5 198.5 1.61929 198.5 3V29C198.5 30.3807 197.381 31.5 196 31.5H3C1.61929 31.5 0.5 30.3807 0.5 29V3Z" fill="white" stroke="#0172D0"/>
<path d="M37.407 15.161C37.407 14.413 37.5793 13.742 37.924 13.148C38.276 12.554 38.749 12.092 39.343 11.762C39.9443 11.4247 40.6007 11.256 41.312 11.256C42.126 11.256 42.8483 11.4577 43.479 11.861C44.117 12.257 44.579 12.8217 44.865 13.555H43.358C43.16 13.1517 42.885 12.851 42.533 12.653C42.181 12.455 41.774 12.356 41.312 12.356C40.806 12.356 40.355 12.4697 39.959 12.697C39.563 12.9243 39.2513 13.2507 39.024 13.676C38.804 14.1013 38.694 14.5963 38.694 15.161C38.694 15.7257 38.804 16.2207 39.024 16.646C39.2513 17.0713 39.563 17.4013 39.959 17.636C40.355 17.8633 40.806 17.977 41.312 17.977C41.774 17.977 42.181 17.878 42.533 17.68C42.885 17.482 43.16 17.1813 43.358 16.778H44.865C44.579 17.5113 44.117 18.076 43.479 18.472C42.8483 18.868 42.126 19.066 41.312 19.066C40.5933 19.066 39.937 18.901 39.343 18.571C38.749 18.2337 38.276 17.768 37.924 17.174C37.5793 16.58 37.407 15.909 37.407 15.161ZM48.9618 19.099C48.3898 19.099 47.8728 18.9707 47.4108 18.714C46.9488 18.45 46.5858 18.0833 46.3218 17.614C46.0578 17.1373 45.9258 16.5873 45.9258 15.964C45.9258 15.348 46.0615 14.8017 46.3328 14.325C46.6041 13.8483 46.9745 13.4817 47.4438 13.225C47.9131 12.9683 48.4375 12.84 49.0168 12.84C49.5961 12.84 50.1205 12.9683 50.5898 13.225C51.0591 13.4817 51.4295 13.8483 51.7008 14.325C51.9721 14.8017 52.1078 15.348 52.1078 15.964C52.1078 16.58 51.9685 17.1263 51.6898 17.603C51.4111 18.0797 51.0298 18.45 50.5458 18.714C50.0691 18.9707 49.5411 19.099 48.9618 19.099ZM48.9618 18.01C49.2845 18.01 49.5851 17.933 49.8638 17.779C50.1498 17.625 50.3808 17.394 50.5568 17.086C50.7328 16.778 50.8208 16.404 50.8208 15.964C50.8208 15.524 50.7365 15.1537 50.5678 14.853C50.3991 14.545 50.1755 14.314 49.8968 14.16C49.6181 14.006 49.3175 13.929 48.9948 13.929C48.6721 13.929 48.3715 14.006 48.0928 14.16C47.8215 14.314 47.6051 14.545 47.4438 14.853C47.2825 15.1537 47.2018 15.524 47.2018 15.964C47.2018 16.6167 47.3668 17.1227 47.6968 17.482C48.0341 17.834 48.4558 18.01 48.9618 18.01ZM56.4055 12.84C56.8821 12.84 57.3075 12.939 57.6815 13.137C58.0628 13.335 58.3598 13.6283 58.5725 14.017C58.7851 14.4057 58.8915 14.875 58.8915 15.425V19H57.6485V15.612C57.6485 15.0693 57.5128 14.655 57.2415 14.369C56.9701 14.0757 56.5998 13.929 56.1305 13.929C55.6611 13.929 55.2871 14.0757 55.0085 14.369C54.7371 14.655 54.6015 15.0693 54.6015 15.612V19H53.3475V12.939H54.6015V13.632C54.8068 13.3827 55.0671 13.1883 55.3825 13.049C55.7051 12.9097 56.0461 12.84 56.4055 12.84ZM63.549 12.84C64.0257 12.84 64.451 12.939 64.825 13.137C65.2063 13.335 65.5033 13.6283 65.716 14.017C65.9287 14.4057 66.035 14.875 66.035 15.425V19H64.792V15.612C64.792 15.0693 64.6563 14.655 64.385 14.369C64.1137 14.0757 63.7433 13.929 63.274 13.929C62.8047 13.929 62.4307 14.0757 62.152 14.369C61.8807 14.655 61.745 15.0693 61.745 15.612V19H60.491V12.939H61.745V13.632C61.9503 13.3827 62.2107 13.1883 62.526 13.049C62.8487 12.9097 63.1897 12.84 63.549 12.84ZM73.1896 15.821C73.1896 16.0483 73.1749 16.2537 73.1456 16.437H68.5146C68.5512 16.921 68.7309 17.3097 69.0536 17.603C69.3762 17.8963 69.7722 18.043 70.2416 18.043C70.9162 18.043 71.3929 17.7607 71.6716 17.196H73.0246C72.8412 17.7533 72.5076 18.2117 72.0236 18.571C71.5469 18.923 70.9529 19.099 70.2416 19.099C69.6622 19.099 69.1416 18.9707 68.6796 18.714C68.2249 18.45 67.8656 18.0833 67.6016 17.614C67.3449 17.1373 67.2166 16.5873 67.2166 15.964C67.2166 15.3407 67.3412 14.7943 67.5906 14.325C67.8472 13.8483 68.2029 13.4817 68.6576 13.225C69.1196 12.9683 69.6476 12.84 70.2416 12.84C70.8136 12.84 71.3232 12.9647 71.7706 13.214C72.2179 13.4633 72.5662 13.8153 72.8156 14.27C73.0649 14.7173 73.1896 15.2343 73.1896 15.821ZM71.8806 15.425C71.8732 14.963 71.7082 14.5927 71.3856 14.314C71.0629 14.0353 70.6632 13.896 70.1866 13.896C69.7539 13.896 69.3836 14.0353 69.0756 14.314C68.7676 14.5853 68.5842 14.9557 68.5256 15.425H71.8806ZM74.0056 15.964C74.0056 15.3407 74.1303 14.7943 74.3796 14.325C74.6363 13.8483 74.9883 13.4817 75.4356 13.225C75.883 12.9683 76.3963 12.84 76.9756 12.84C77.709 12.84 78.314 13.016 78.7906 13.368C79.2746 13.7127 79.601 14.2077 79.7696 14.853H78.4166C78.3066 14.5523 78.1306 14.3177 77.8886 14.149C77.6466 13.9803 77.3423 13.896 76.9756 13.896C76.4623 13.896 76.0516 14.0793 75.7436 14.446C75.443 14.8053 75.2926 15.3113 75.2926 15.964C75.2926 16.6167 75.443 17.1263 75.7436 17.493C76.0516 17.8597 76.4623 18.043 76.9756 18.043C77.7016 18.043 78.182 17.724 78.4166 17.086H79.7696C79.5936 17.702 79.2636 18.1933 78.7796 18.56C78.2956 18.9193 77.6943 19.099 76.9756 19.099C76.3963 19.099 75.883 18.9707 75.4356 18.714C74.9883 18.45 74.6363 18.0833 74.3796 17.614C74.1303 17.1373 74.0056 16.5873 74.0056 15.964ZM82.4823 13.962V17.317C82.4823 17.5443 82.5337 17.7093 82.6363 17.812C82.7463 17.9073 82.9297 17.955 83.1863 17.955H83.9563V19H82.9663C82.4017 19 81.969 18.868 81.6683 18.604C81.3677 18.34 81.2173 17.911 81.2173 17.317V13.962H80.5023V12.939H81.2173V11.432H82.4823V12.939H83.9563V13.962H82.4823ZM96.1095 12.939L94.2285 19H92.9085L91.6875 14.523L90.4665 19H89.1465L87.2545 12.939H88.5305L89.7955 17.812L91.0825 12.939H92.3915L93.6235 17.79L94.8775 12.939H96.1095ZM97.6847 12.136C97.4573 12.136 97.2667 12.059 97.1127 11.905C96.9587 11.751 96.8817 11.5603 96.8817 11.333C96.8817 11.1057 96.9587 10.915 97.1127 10.761C97.2667 10.607 97.4573 10.53 97.6847 10.53C97.9047 10.53 98.0917 10.607 98.2457 10.761C98.3997 10.915 98.4767 11.1057 98.4767 11.333C98.4767 11.5603 98.3997 11.751 98.2457 11.905C98.0917 12.059 97.9047 12.136 97.6847 12.136ZM98.3007 12.939V19H97.0467V12.939H98.3007ZM101.41 13.962V17.317C101.41 17.5443 101.461 17.7093 101.564 17.812C101.674 17.9073 101.857 17.955 102.114 17.955H102.884V19H101.894C101.329 19 100.897 18.868 100.596 18.604C100.295 18.34 100.145 17.911 100.145 17.317V13.962H99.4301V12.939H100.145V11.432H101.41V12.939H102.884V13.962H101.41ZM107.175 12.84C107.637 12.84 108.048 12.939 108.407 13.137C108.774 13.335 109.06 13.6283 109.265 14.017C109.478 14.4057 109.584 14.875 109.584 15.425V19H108.341V15.612C108.341 15.0693 108.205 14.655 107.934 14.369C107.663 14.0757 107.292 13.929 106.823 13.929C106.354 13.929 105.98 14.0757 105.701 14.369C105.43 14.655 105.294 15.0693 105.294 15.612V19H104.04V10.86H105.294V13.643C105.507 13.3863 105.774 13.1883 106.097 13.049C106.427 12.9097 106.786 12.84 107.175 12.84ZM118.98 11.355V12.378H116.945V19H115.691V12.378H113.645V11.355H118.98ZM128.39 12.939L126.509 19H125.189L123.968 14.523L122.747 19H121.427L119.535 12.939H120.811L122.076 17.812L123.363 12.939H124.672L125.904 17.79L127.158 12.939H128.39ZM129.965 12.136C129.738 12.136 129.547 12.059 129.393 11.905C129.239 11.751 129.162 11.5603 129.162 11.333C129.162 11.1057 129.239 10.915 129.393 10.761C129.547 10.607 129.738 10.53 129.965 10.53C130.185 10.53 130.372 10.607 130.526 10.761C130.68 10.915 130.757 11.1057 130.757 11.333C130.757 11.5603 130.68 11.751 130.526 11.905C130.372 12.059 130.185 12.136 129.965 12.136ZM130.581 12.939V19H129.327V12.939H130.581ZM133.69 13.962V17.317C133.69 17.5443 133.742 17.7093 133.844 17.812C133.954 17.9073 134.138 17.955 134.394 17.955H135.164V19H134.174C133.61 19 133.177 18.868 132.876 18.604C132.576 18.34 132.425 17.911 132.425 17.317V13.962H131.71V12.939H132.425V11.432H133.69V12.939H135.164V13.962H133.69ZM137.783 13.962V17.317C137.783 17.5443 137.834 17.7093 137.937 17.812C138.047 17.9073 138.23 17.955 138.487 17.955H139.257V19H138.267C137.702 19 137.27 18.868 136.969 18.604C136.668 18.34 136.518 17.911 136.518 17.317V13.962H135.803V12.939H136.518V11.432H137.783V12.939H139.257V13.962H137.783ZM145.968 15.821C145.968 16.0483 145.953 16.2537 145.924 16.437H141.293C141.33 16.921 141.509 17.3097 141.832 17.603C142.155 17.8963 142.551 18.043 143.02 18.043C143.695 18.043 144.171 17.7607 144.45 17.196H145.803C145.62 17.7533 145.286 18.2117 144.802 18.571C144.325 18.923 143.731 19.099 143.02 19.099C142.441 19.099 141.92 18.9707 141.458 18.714C141.003 18.45 140.644 18.0833 140.38 17.614C140.123 17.1373 139.995 16.5873 139.995 15.964C139.995 15.3407 140.12 14.7943 140.369 14.325C140.626 13.8483 140.981 13.4817 141.436 13.225C141.898 12.9683 142.426 12.84 143.02 12.84C143.592 12.84 144.102 12.9647 144.549 13.214C144.996 13.4633 145.345 13.8153 145.594 14.27C145.843 14.7173 145.968 15.2343 145.968 15.821ZM144.659 15.425C144.652 14.963 144.487 14.5927 144.164 14.314C143.841 14.0353 143.442 13.896 142.965 13.896C142.532 13.896 142.162 14.0353 141.854 14.314C141.546 14.5853 141.363 14.9557 141.304 15.425H144.659ZM148.456 13.819C148.639 13.511 148.881 13.2727 149.182 13.104C149.49 12.928 149.853 12.84 150.271 12.84V14.138H149.952C149.461 14.138 149.087 14.2627 148.83 14.512C148.581 14.7613 148.456 15.194 148.456 15.81V19H147.202V12.939H148.456V13.819Z" fill="#0172D0"/>
<path d="M24.9442 11.0482C24.9569 11.2259 24.9569 11.4036 24.9569 11.5812C24.9569 17 20.8326 23.2437 13.2944 23.2437C10.9721 23.2437 8.81473 22.5711 7 21.4036C7.32996 21.4417 7.64719 21.4544 7.98985 21.4544C9.90607 21.4544 11.6701 20.8072 13.0787 19.7031C11.2767 19.665 9.7665 18.4848 9.24618 16.8604C9.50001 16.8985 9.7538 16.9239 10.0203 16.9239C10.3883 16.9239 10.7564 16.8731 11.099 16.7843C9.22083 16.4036 7.81215 14.7538 7.81215 12.7614V12.7107C8.35782 13.0153 8.99239 13.2056 9.66493 13.231C8.56087 12.4949 7.83754 11.2386 7.83754 9.81724C7.83754 9.05583 8.04055 8.35786 8.3959 7.74871C10.4137 10.236 13.4467 11.8604 16.8477 12.0381C16.7843 11.7335 16.7462 11.4163 16.7462 11.099C16.7462 8.84009 18.5736 7 20.8452 7C22.0254 7 23.0914 7.49492 23.8401 8.29442C24.7665 8.11676 25.6548 7.7741 26.4416 7.30457C26.137 8.25637 25.4898 9.05587 24.6396 9.56345C25.4645 9.47466 26.264 9.24618 27 8.92895C26.4417 9.7411 25.7437 10.4644 24.9442 11.0482Z" fill="#0172D0"/>
</svg>
